# .PCD v0.7 - Point Cloud Data file format
VERSION 0.7
FIELDS x y z
SIZE 4 4 4
TYPE F F F
COUNT 1 1 1
WIDTH 175
HEIGHT 1
VIEWPOINT 0 0 0 1 0 0 0
POINTS 175
DATA ascii
-35.530003 -62.790001 0
-35.410004 -62.929996 0
-35.400005 -63.189999 0
-35.429005 -63.469997 0
-35.299004 -63.659996 0
-35.168999 -63.720001 0
-35.118999 -63.740002 0
-35.130001 -63.989998 0
-35.119003 -64.019989 0
-35.109001 -64.050003 0
-35.090004 -64.110001 0
-35.059002 -64.220001 0
-35.02 -64.339996 0
-34.970001 -64.5 0
-34.959999 -64.519997 0
-34.880001 -64.620003 0
-34.849998 -64.669998 0
-34.488998 -64.849991 0
-34.330002 -64.839996 0
-34.190002 -65.129997 0
-34.139999 -65.190002 0
-34.118999 -65.239998 0
-34.039001 -65.410004 0
-33.979004 -65.540001 0
-33.970001 -65.57 0
-34.010002 -65.660004 0
-33.988998 -66.019997 0
-33.970001 -66.07 0
-33.950001 -66.120003 0
-34.080002 -66.300003 0
-34.100002 -66.349998 0
-34.139999 -66.419998 0
-34.168999 -66.440002 0
-34.229004 -66.489998 0
-34.279999 -66.540001 0
-34.330002 -66.599998 0
-34.41 -66.68 0
-34.549 -66.73999 0
-34.580006 -66.75 0
-34.679001 -66.809998 0
-34.720001 -66.829994 0
-34.820004 -66.900002 0
-34.900002 -66.940002 0
-35.058998 -67 0
-35.229 -67.050003 0
-35.279999 -67.049995 0
-35.450005 -67.010002 0
-35.52 -66.980003 0
-35.720005 -66.970001 0
-35.850002 -66.730003 0
-36.039005 -66.609993 0
-36.080006 -66.510002 0
-36.66 -66.599998 0
-36.450001 -66.959 0
-36.419003 -67.040001 0
-36.368999 -67.190002 0
-36.390003 -67.279999 0
-36.380001 -67.449997 0
-36.330002 -67.580002 0
-36.32 -67.610001 0
-36.308998 -67.720001 0
-36.299004 -67.800003 0
-36.349998 -67.889999 0
-36.389999 -67.989998 0
-36.510002 -68.110001 0
-36.590004 -68.199997 0
-36.789001 -68.309998 0
-36.869003 -68.400002 0
-37.168999 -68.480003 0
-37.289001 -68.489998 0
-37.450001 -68.559998 0
-37.52 -68.540001 0
-37.590004 -68.519997 0
-37.668999 -68.480003 0
-37.750004 -68.419998 0
-37.759998 -68.410004 0
-37.889999 -68.239998 0
-37.970001 -68.199997 0
-38.099998 -68.010002 0
-38.229004 -67.830002 0
-38.239002 -67.82 0
-38.470001 -67.579994 0
-38.580002 -67.569992 0
-38.639999 -67.139999 0
-38.650002 -67.110001 0
-38.660004 -67.080002 0
-38.799 -66.889999 0
-38.82 -66.839989 0
-39.039005 -66.589989 0
-39.039001 -66.43 0
-39.220005 -66.220001 0
-39.239002 -66.110001 0
-39.27 -66.010002 0
-39.439999 -65.830002 0
-39.459999 -65.699997 0
-39.530003 -65.510002 0
-39.558998 -65.43 0
-39.59 -65.370003 0
-39.600002 -65.349998 0
-39.630001 -65.300003 0
-39.729004 -65.190002 0
-39.799 -65.150002 0
-39.849998 -65.010002 0
-39.900005 -64.940002 0
-39.939999 -64.879997 0
-40.049 -64.729996 0
-40.058998 -64.720001 0
-40.07 -64.709 0
-40.09 -64.650002 0
-40.168999 -64.410004 0
-40.080006 -64.279999 0
-39.869003 -64.199997 0
-39.750004 -64.07 0
-39.530003 -63.909996 0
-39.330002 -63.860001 0
-39.209999 -63.779995 0
-39.080002 -63.599995 0
-38.850002 -63.610001 0
-38.759998 -63.589996 0
-38.700005 -63.59 0
-38.609001 -63.59 0
-38.459999 -63.699997 0
-38.429001 -63.739998 0
-38.299004 -63.880001 0
-38.279999 -63.929996 0
-38.270004 -63.959 0
-38.25 -64.019997 0
-38.109001 -64.18 0
-37.630001 -63.860001 0
-37.679005 -63.749996 0
-37.709999 -63.699997 0
-37.75 -63.639996 0
-37.84 -63.490002 0
-37.940002 -63.379997 0
-37.919003 -63.309998 0
-37.889999 -63.25 0
-37.939999 -62.93 0
-37.979004 -62.779999 0
-37.979 -62.52 0
-37.91 -62.489998 0
-37.59 -62.379997 0
-37.400005 -62.239998 0
-37.049004 -61.999996 0
-36.840004 -61.879997 0
-36.690002 -61.93 0
-36.639999 -61.929996 0
-36.460003 -61.919998 0
-36.25 -62.029999 0
-36.209999 -62.16 0
-36.099998 -62.279995 0
-36.080006 -62.339996 0
-35.950001 -62.52 0
-35.940002 -62.549995 0
-35.918999 -62.609997 0
-37.029999 -64.879997 0
-37.549 -65.120003 0
-37.529999 -65.290001 0
-37.479 -65.400002 0
-37.179001 -65.519997 0
-36.799004 -65.330002 0
-36.808998 -65.050003 0
-37.488998 -64.110001 0
-37.52 -64.050003 0
-37.558998 -63.990002 0
-38.080002 -64.269997 0
-38.010002 -64.440002 0
-37.979004 -64.5 0
-37.970005 -64.529999 0
-37.939999 -64.620003 0
-37.809002 -64.75 0
-37.250004 -64.690002 0
-37.27 -64.440002 0
-37.320004 -64.360001 0
-37.410004 -64.25 0
-37.439999 -64.179993 0
