# .PCD v0.7 - Point Cloud Data file format
VERSION 0.7
FIELDS x y z
SIZE 4 4 4
TYPE F F F
COUNT 1 1 1
WIDTH 3400
HEIGHT 1
VIEWPOINT 0 0 0 1 0 0 0
POINTS 3400
DATA ascii
-16.776682 21.288239 0
-16.655001 18.724274 0
-16.616787 24.664608 0
-16.625517 20.079845 0
-16.6113 21.011318 0
-16.458973 21.636316 0
-16.474941 18.809692 0
-16.643965 25.418245 0
-16.316469 26.764174 0
-16.407572 18.369617 0
-16.320215 16.092768 0
-16.392521 27.519815 0
-16.317535 28.506659 0
-16.212244 21.07827 0
-16.24329 23.060635 0
-16.219015 16.449629 0
-16.210701 25.689249 0
-16.185047 23.241966 0
-16.075762 14.824689 0
-16.087957 29.779688 0
-16.054779 17.661224 0
-16.032738 15.634054 0
-15.932062 29.049801 0
-15.960001 28.428812 0
-15.624824 27.596628 0
-15.623608 21.168179 0
-15.727748 17.128643 0
-15.629643 19.035328 0
-15.700104 20.007687 0
-15.834904 13.824142 0
-15.769959 30.846426 0
-15.611257 25.193129 0
-15.515394 23.286274 0
-15.569159 30.434343 0
-15.553363 24.409962 0
-15.307391 25.174946 0
-15.499676 28.672239 0
-15.480939 13.775785 0
-15.390976 14.889479 0
-15.448949 15.094676 0
-15.476228 31.703794 0
-15.503919 30.33938 0
-15.181113 11.825826 0
-15.394549 12.946009 0
-15.250508 11.997598 0
-15.285501 22.427706 0
-15.192435 12.264327 0
-15.297191 18.619476 0
-15.316024 32.00592 0
-15.186274 -25.099634 0
-15.218063 -24.136534 0
-15.203284 32.979618 0
-15.02389 -25.740084 0
-14.770853 30.886459 0
-15.039609 16.305906 0
-14.732152 33.954838 0
-14.818254 32.92012 0
-14.794245 30.911362 0
-14.883311 -20.13883 0
-15.047137 -26.882717 0
-15.078954 -8.6494703 0
-14.492623 27.344835 0
-15.083339 -23.02232 0
-14.561765 26.086325 0
-14.937987 -3.6861336 0
-14.914536 -17.648739 0
-14.705716 14.948405 0
-14.958705 -5.549202 0
-14.904572 -12.11296 0
-13.814886 34.672535 0
-14.998551 -11.317178 0
-14.690316 17.551523 0
-14.668036 -27.821142 0
-14.757945 -16.2036 0
-14.745729 -28.337152 0
-14.670229 -15.950404 0
-14.706758 20.905489 0
-14.778591 -19.098289 0
-14.785608 -9.2316351 0
-14.682739 -28.624727 0
-14.921463 -5.4071307 0
-14.202089 21.497438 0
-14.436534 28.005638 0
-14.696074 23.568583 0
-14.50819 34.071213 0
-14.106554 33.797817 0
-14.760803 -21.721846 0
-14.734382 -5.3163462 0
-13.770168 10.920302 0
-14.730612 -0.91137326 0
-14.504714 11.45059 0
-14.477772 -28.095535 0
-14.511999 18.320446 0
-14.596526 -15.942278 0
-14.280942 33.965771 0
-14.47965 -21.266088 0
-14.299576 19.437574 0
-14.740862 -2.4117632 0
-14.614623 -15.0927 0
-14.46382 -14.269535 0
-14.539854 -11.334257 0
-14.548479 -16.471121 0
-14.641046 -19.245291 0
-14.41974 13.218617 0
-14.598177 -15.298778 0
-14.516029 -4.5244131 0
-14.577255 -1.0396031 0
-14.744483 -25.829111 0
-14.339063 32.503159 0
-14.537411 -15.525352 0
-14.442031 -12.648699 0
-14.5446 -25.980501 0
-14.435714 -14.24777 0
-14.498006 -15.038055 0
-14.216228 6.1644282 0
-14.481676 15.471725 0
-14.12251 9.7218351 0
-14.255425 10.319424 0
-14.372662 -8.1347752 0
-14.427184 -15.26545 0
-14.28027 -14.536217 0
-14.385375 -5.8700056 0
-13.784273 33.588699 0
-14.279969 -1.9586364 0
-14.311757 3.3772557 0
-14.438615 -20.030132 0
-14.185488 32.226868 0
-14.236365 16.677874 0
-14.280898 14.924102 0
-14.317327 -18.395773 0
-14.282866 -18.267982 0
-14.210714 -11.239439 0
-14.265262 -20.785807 0
-14.057526 -22.023588 0
-14.256692 -16.041542 0
-14.010477 -14.529899 0
-14.366622 -27.604429 0
-13.976418 35.614243 0
-14.245896 -1.089842 0
-13.707578 33.371769 0
-13.740622 -32.380657 0
-13.882943 12.135322 0
-13.90472 3.2089276 0
-14.027606 -12.37019 0
-13.76657 -24.088659 0
-14.014299 -14.799214 0
-14.1978 22.804399 0
-14.16111 -39.773106 0
-13.957932 -30.502619 0
-13.725742 22.691429 0
-13.875161 -2.6969712 0
-13.755394 25.784439 0
-13.995875 8.3504362 0
-14.016075 -36.615547 0
-13.844541 11.437859 0
-14.067431 -38.6493 0
-14.0163 7.3803 0
-13.857938 -10.069726 0
-14.097328 13.421968 0
-13.94788 -4.7818699 0
-14.081553 -20.89996 0
-13.66578 9.1093359 0
-14.036879 -67.86319 0
-13.932299 -69.661598 0
-13.781196 11.593526 0
-13.956882 -41.321228 0
-13.995282 11.230276 0
-13.770065 -29.110193 0
-13.579387 31.039976 0
-14.005548 13.291902 0
-13.703165 19.916157 0
-13.811836 -16.603611 0
-13.86541 -68.348679 0
-13.607873 -70.431892 0
-13.760736 -18.091721 0
-14.057896 -40.480179 0
-13.30843 36.501518 0
-13.734434 -32.410328 0
-13.787704 -18.586416 0
-13.701023 -34.686169 0
-13.82302 34.070526 0
-13.806813 -37.195415 0
-13.555045 -8.8256617 0
-13.542763 7.6303492 0
-13.694698 -15.064925 0
-13.757344 16.879057 0
-13.860644 -4.2231059 0
-13.641905 -66.497658 0
-13.65645 -13.049494 0
-13.799353 -11.453521 0
-13.557082 -32.100494 0
-13.712117 -39.810429 0
-13.046393 34.843231 0
-13.464153 -34.898899 0
-13.58152 -9.34832 0
-13.777937 -66.074013 0
-13.577455 -22.183546 0
-13.31226 24.76985 0
-13.627363 36.457436 0
-13.603771 -39.804092 0
-13.665087 9.8765621 0
-13.74519 14.820245 0
-13.732292 -41.699379 0
-13.55846 -64.606926 0
-13.342763 -0.86975151 0
-13.721617 0.19786575 0
-13.249826 -9.8943567 0
-13.483687 5.9226675 0
-13.698105 -66.637947 0
-13.440184 22.214703 0
-12.987255 -33.796425 0
-13.510817 12.044894 0
-13.296702 -36.39555 0
-13.508416 -41.549137 0
-13.951376 -28.000687 0
-13.562781 -33.898083 0
-13.603056 -16.353279 0
-13.476749 -14.615225 0
-13.190514 1.6538812 0
-13.364698 -65.243378 0
-13.255613 -4.6470423 0
-13.406185 -66.941551 0
-13.12579 -70.378464 0
-13.529757 35.679813 0
-12.926142 7.8254595 0
-13.157318 -13.389502 0
-13.351913 -21.686632 0
-12.995425 28.301661 0
-13.528131 -18.861584 0
-13.14522 36.934013 0
-12.957281 -25.688398 0
-13.329054 35.562351 0
-13.399307 -17.215063 0
-13.383417 -8.5522366 0
-13.129716 17.532194 0
-12.769072 33.631989 0
-13.187603 9.0593567 0
-13.213479 17.739151 0
-13.249249 -19.015638 0
-13.181964 -33.833874 0
-13.198579 -31.824905 0
-13.300405 -21.328806 0
-13.22296 33.554382 0
-13.098422 -29.856649 0
-13.065508 9.5280113 0
-13.884245 -12.780782 0
-13.07974 -36.435471 0
-13.107328 -67.190857 0
-12.874671 -63.259338 0
-13.129462 24.458681 0
-13.000144 -11.286691 0
-13.052558 -41.796726 0
-12.677 -2.8160105 0
-13.380432 34.836857 0
-13.286832 37.005768 0
-13.385707 37.196354 0
-13.010682 -28.71788 0
-13.188493 -42.434856 0
-13.592539 -7.9053574 0
-13.284117 -30.430609 0
-13.285192 -66.171104 0
-13.291517 -20.883976 0
-13.249432 -24.70155 0
-13.014952 -36.032558 0
-13.160341 9.5236053 0
-12.774692 34.349598 0
-13.305167 36.389069 0
-12.543181 -34.870937 0
-12.547345 -65.427811 0
-13.009693 -62.992756 0
-12.736956 9.5158844 0
-12.838748 -30.357309 0
-12.821168 -37.185898 0
-13.170126 39.174274 0
-12.487095 -64.831841 0
-13.060445 34.267395 0
-12.925218 -5.735342 0
-13.093172 38.544968 0
-13.035883 41.435818 0
-12.69288 -17.728437 0
-12.939964 7.5536056 0
-12.906933 -65.577751 0
-12.941141 41.778446 0
-13.165827 -26.160597 0
-13.22101 -30.099152 0
-12.720525 -34.331944 0
-13.179619 -1.968542 0
-12.751535 35.017029 0
-12.945256 -8.7195148 0
-13.018564 33.902569 0
-12.872305 40.286808 0
-13.015479 35.692719 0
-13.063879 -19.018387 0
-13.085049 -28.019663 0
-12.854482 -16.902033 0
-12.490331 36.145428 0
-12.549056 5.016727 0
-12.87297 37.767841 0
-12.631127 -32.092781 0
-12.843085 -17.670652 0
-12.298366 34.829819 0
-12.575035 -40.051426 0
-12.617883 -38.710484 0
-12.779838 30.132772 0
-13.035373 -16.660095 0
-12.695452 38.983421 0
-12.887708 11.295718 0
-12.753476 -28.855036 0
-12.819848 -25.573751 0
-12.424784 -37.19529 0
-12.896738 4.8328347 0
-12.867559 36.110031 0
-12.9807 -7.7272701 0
-12.860891 -42.131077 0
-12.490629 34.80143 0
-12.661539 -5.2840152 0
-12.571557 37.90062 0
-12.265022 -71.476753 0
-12.9382 -7.6490698 0
-12.041699 -9.2773809 0
-12.676294 -62.362701 0
-12.436083 13.352442 0
-12.714616 -63.841125 0
-12.393037 39.1199 0
-12.605735 -20.837545 0
-11.789513 -69.385765 0
-12.67642 14.804597 0
-12.549635 -31.250166 0
-12.610039 -33.497688 0
-12.784119 -11.708014 0
-12.742312 -27.66646 0
-13.091845 -26.893089 0
-11.779483 6.7559934 0
-12.719305 40.17915 0
-12.396625 -8.7958317 0
-12.841989 9.9341393 0
-12.635345 -37.757042 0
-12.565935 -60.802094 0
-12.517819 15.979224 0
-12.585798 -42.535709 0
-12.597767 -9.3962622 0
-12.296865 -11.333375 0
-12.379287 -19.766062 0
-12.470519 -38.681904 0
-12.415813 42.066757 0
-12.672715 41.746658 0
-12.32705 41.455902 0
-12.700091 -21.31525 0
-12.0847 -9.4904051 0
-12.466322 -32.665005 0
-12.603461 43.189919 0
-12.295002 24.885435 0
-12.435571 33.41853 0
-12.352662 -38.802834 0
-12.38113 -22.50724 0
-12.160435 -37.893436 0
-12.299316 -8.7137337 0
-12.414763 39.260429 0
-12.292015 7.3328257 0
-11.865353 -65.76532 0
-12.17302 -41.965797 0
-12.372473 -43.102295 0
-12.242116 -41.97644 0
-12.506045 -59.653793 0
-11.867476 -37.924187 0
-12.165692 34.859577 0
-12.331531 19.412838 0
-12.398987 33.910309 0
-12.460711 -14.454434 0
-12.476804 40.879375 0
-11.296439 5.6725311 0
-12.474909 -60.87888 0
-12.710747 -23.611874 0
-12.425617 26.72397 0
-12.383981 -63.005608 0
-12.395255 -61.450493 0
-12.432606 19.525776 0
-11.76749 -63.761898 0
-12.181478 -43.423462 0
-12.4558 -3.2644801 0
-12.359677 43.568233 0
-11.957129 38.280334 0
-12.008725 38.651596 0
-11.886419 39.747772 0
-11.926051 -32.116982 0
-11.89263 -36.789536 0
-12.217602 -7.077857 0
-12.10218 -59.16185 0
-11.601037 37.851227 0
-12.150313 40.133675 0
-12.342778 41.39642 0
-12.047004 7.0335789 0
-12.731574 -18.794699 0
-12.3849 -6.9604998 0
-11.691115 -1.3431023 0
-12.055708 36.859013 0
-11.615625 37.62569 0
-12.3773 -7.6940198 0
-11.954991 -28.964071 0
-12.3517 -7.3744998 0
-11.820622 38.804138 0
-12.265213 1.0907738 0
-12.3182 -9.0961905 0
-12.391117 -65.384422 0
-12.161566 43.955059 0
-11.953458 35.468967 0
-11.88294 -20.000854 0
-11.945451 36.323227 0
-12.252495 21.849646 0
-12.104246 -59.130516 0
-11.539049 -40.359283 0
-12.122673 33.138042 0
-11.817611 -40.673847 0
-11.202663 39.195721 0
-12.334281 40.003174 0
-11.867665 -60.610138 0
-11.751274 42.50811 0
-11.811012 -27.071493 0
-12.074437 -21.723331 0
-11.800985 -29.567419 0
-10.972998 1.6020763 0
-11.684307 -30.94191 0
-11.990544 -31.758072 0
-12.132351 -11.207678 0
-11.565045 -33.824635 0
-11.666673 39.386269 0
-11.929961 -26.187267 0
-11.469701 -66.348206 0
-11.902915 -42.973301 0
-11.908944 -28.025047 0
-12.197752 11.085469 0
-12.241271 -64.324913 0
-11.903743 -28.187563 0
-12.004197 -64.016777 0
-12.137003 42.065903 0
-11.728445 3.0164406 0
-11.660087 -18.157345 0
-12.054706 40.23175 0
-11.658707 39.132217 0
-12.1135 5.2827702 0
-11.865243 -26.630888 0
-11.866684 -20.887173 0
-11.756124 33.669296 0
-11.851317 29.151524 0
-11.75537 -65.136292 0
-12.058952 -62.621563 0
-11.790108 36.507549 0
-11.502235 -34.777195 0
-11.671937 10.644965 0
-10.942591 44.482235 0
-11.926314 24.291971 0
-11.682904 -26.115959 0
-11.584851 6.4058938 0
-11.726555 21.665102 0
-11.587828 32.153618 0
-11.650956 -38.162506 0
-11.523443 -65.52211 0
-10.648294 -71.654747 0
-11.770608 -14.523385 0
-11.269329 -43.535694 0
-11.440984 -65.253311 0
-11.918429 9.5869617 0
-11.683716 43.415333 0
-11.077207 -7.2253137 0
-11.285872 -36.339863 0
-11.281563 -32.040203 0
-11.816168 -62.494514 0
-11.209935 -57.814831 0
-11.424478 33.464947 0
-11.284166 -55.355057 0
-11.156127 41.805656 0
-11.818793 -64.663658 0
-11.248062 -68.422562 0
-11.570942 32.174816 0
-11.025554 39.190514 0
-11.67203 -60.442604 0
-11.043781 -70.901718 0
-11.243333 17.725388 0
-11.690514 -19.879904 0
-11.482181 42.40966 0
-11.12814 38.185154 0
-11.425311 -6.432128 0
-11.632528 -65.749077 0
-11.042562 -42.448177 0
-11.382633 -7.771349 0
-11.676812 -4.5621543 0
-11.355287 17.309591 0
-11.555243 -32.02803 0
-11.33493 -41.531807 0
-11.051293 -40.594189 0
-11.302234 38.252335 0
-11.603868 -66.908043 0
-11.004062 36.602119 0
-11.242562 -55.662956 0
-10.78567 3.8917449 0
-10.990931 36.090469 0
-11.6602 -6.4655099 0
-11.477479 39.320362 0
-11.194142 -2.9169223 0
-11.551853 -6.5467095 0
-11.564738 -2.9037423 0
-11.248925 -21.021563 0
-11.409709 -34.058235 0
-10.946069 38.482948 0
-11.119838 -42.481052 0
-11.285071 36.271927 0
-11.5823 -7.5660901 0
-11.132736 38.983776 0
-11.554688 -22.635134 0
-10.948244 6.9943247 0
-10.61703 37.69521 0
-10.851785 -7.2273049 0
-11.174749 -7.9739037 0
-11.362478 -55.979809 0
-11.108725 29.36924 0
-11.417254 44.986927 0
-11.003922 -27.864519 0
-10.513415 36.291435 0
-11.596548 -22.089966 0
-11.367139 -12.228881 0
-11.210147 -20.509233 0
-11.423647 -9.3659878 0
-10.182154 -64.025398 0
-10.792815 -42.212666 0
-11.146199 33.050835 0
-10.692681 -7.5436101 0
-11.13371 20.104809 0
-11.099221 -40.566025 0
-11.265403 41.077995 0
-10.70127 -34.128757 0
-10.890458 36.78167 0
-11.055869 -6.2694716 0
-11.260501 -43.939484 0
-11.397535 -38.697006 0
-11.168319 -62.310974 0
-11.349263 25.655481 0
-11.040028 -22.728266 0
-11.324581 -65.43586 0
-10.955237 -68.701195 0
-11.190766 -56.74316 0
-10.446952 -19.442671 0
-11.023664 -21.170397 0
-11.3019 2.36292 0
-10.768799 33.699455 0
-10.00882 -67.470474 0
-10.862032 37.849915 0
-11.2889 13.7455 0
-11.011846 -68.313011 0
-10.932904 31.873386 0
-10.612398 43.403122 0
-10.607141 -39.73666 0
-10.408807 5.6939149 0
-10.889488 -65.698242 0
-11.204494 -12.247999 0
-11.010284 -25.626711 0
-11.1198 39.68322 0
-10.815369 -43.172184 0
-10.604755 -60.771866 0
-11.084768 -37.650646 0
-9.9605732 -55.827106 0
-10.886014 -29.602097 0
-11.15646 6.9294481 0
-10.669756 -43.903641 0
-10.794604 -9.5737972 0
-10.630636 -39.192844 0
-10.584437 -55.230026 0
-10.85862 38.982159 0
-10.681003 -32.323391 0
-11.022065 -42.871571 0
-10.986173 -14.720773 0
-10.777445 -63.760132 0
-10.088593 -40.350475 0
-10.99283 -52.41761 0
-10.573686 -38.859406 0
-11.177292 -54.288708 0
-10.793912 -33.53891 0
-10.919746 -29.105976 0
-10.414499 27.398279 0
-10.616911 45.508343 0
-10.84516 -54.254837 0
-10.505879 33.816883 0
-10.504652 -58.095592 0
-10.595787 -29.976315 0
-10.897431 -51.49617 0
-10.82552 -45.908257 0
-10.26827 -43.873489 0
-10.788118 -22.910402 0
-10.677226 -64.812195 0
-10.670297 4.7198029 0
-10.212123 -18.893059 0
-10.910232 -23.795332 0
-10.709798 -65.090973 0
-10.784886 -44.321667 0
-10.411534 20.071657 0
-10.412262 32.062286 0
-10.120417 31.378885 0
-10.507041 -6.0771689 0
-10.881708 5.6001358 0
-10.800076 -47.745579 0
-10.350663 -68.512283 0
-10.797766 -43.972317 0
-9.6974134 -32.530502 0
-10.166064 34.166927 0
-10.114652 36.113033 0
-10.390037 -28.922985 0
-10.8256 -6.6831899 0
-10.284938 -21.694666 0
-9.826767 -71.569382 0
-10.091421 -36.044327 0
-10.590383 -25.691332 0
-10.790596 37.444069 0
-10.690894 -70.001663 0
-10.547529 45.018684 0
-10.482418 42.969532 0
-9.865799 -57.617844 0
-10.186141 -50.581894 0
-10.623177 -1.9173824 0
-10.73201 23.852243 0
-10.310957 22.206945 0
-10.7303 -7.6900902 0
-10.600613 -42.052681 0
-10.113212 35.397537 0
-10.567816 -64.276451 0
-10.30971 31.784344 0
-10.411959 -36.080112 0
-10.571324 -42.55859 0
-10.36836 37.677723 0
-10.566842 -13.940279 0
-10.138477 12.941683 0
-10.48417 10.732122 0
-9.6520348 38.148994 0
-10.488692 -49.207577 0
-10.228801 -38.29969 0
-9.724925 -19.931461 0
-10.404182 -47.546471 0
-10.539446 -44.188206 0
-10.6223 -9.0424204 0
-9.9041367 42.104588 0
-9.3790712 -62.775223 0
-9.4587135 5.2289429 0
-10.17794 -42.609852 0
-10.266978 -43.516441 0
-10.150194 24.430168 0
-9.9919424 29.016817 0
-10.3036 -3.8483138 0
-8.346015 -19.490757 0
-9.9816961 32.734303 0
-10.428263 -11.274394 0
-9.9297152 46.419609 0
-10.216145 -45.635948 0
-9.6450539 -70.54509 0
-9.7540932 36.247917 0
-10.49647 -45.394371 0
-10.314971 -40.202766 0
-10.128902 46.201355 0
-9.5595665 -31.64323 0
-10.351337 -42.397274 0
-10.092993 38.759026 0
-10.145321 -49.227459 0
-10.514874 -66.810898 0
-9.8258467 -62.6898 0
-10.031109 38.120014 0
-9.8079462 -60.552559 0
-9.8345013 16.347294 0
-10.237886 -29.309849 0
-10.037395 39.325855 0
-10.002093 -7.1121144 0
-9.556654 -29.792183 0
-9.5576286 -39.455456 0
-10.3008 2.5218799 0
-9.8124628 33.988903 0
-9.853817 -43.246098 0
-9.8964376 -45.616055 0
-9.7478094 44.933414 0
-9.2998896 -36.223011 0
-9.9079132 -53.396549 0
-9.9027176 -28.787449 0
-9.821002 18.447023 0
-9.8448582 7.8546877 0
-9.2061777 -58.593544 0
-9.9657497 -24.047363 0
-9.2214222 -65.800735 0
-9.8959799 -20.6164 0
-10.121411 -68.475975 0
-10.098404 44.804268 0
-9.7723513 -65.432381 0
-10.063149 40.556824 0
-10.430215 -0.41595393 0
-9.3098106 36.847935 0
-10.068685 -6.1738443 0
-10.092937 38.657551 0
-10.1852 5.9974499 0
-9.1136446 -62.863926 0
-9.9601412 2.4739361 0
-9.1989479 41.021454 0
-10.1647 13.8823 0
-10.1607 9.7625904 0
-9.9751167 -24.515108 0
-9.2981634 -20.489328 0
-9.9475145 -6.5592556 0
-9.47505 -70.564774 0
-9.8495979 -25.343399 0
-8.6563778 -64.020927 0
-9.6922855 -24.747292 0
-9.05509 38.797138 0
-9.800643 -64.106133 0
-9.2323446 36.370689 0
-10.0805 17.7612 0
-9.8908262 4.5041904 0
-10.156225 39.125668 0
-9.9725571 -43.504833 0
-9.2893372 -40.710735 0
-9.0351667 -36.309772 0
-9.678812 45.796486 0
-9.8484364 -41.372593 0
-9.83529 -6.971868 0
-9.4750605 36.60841 0
-9.4926548 -43.753082 0
-9.4139957 21.579506 0
-9.7052183 -41.578819 0
-9.3093233 -5.3778119 0
-9.7668324 3.0948741 0
-9.6239061 46.412582 0
-9.4485998 -54.561081 0
-9.9032202 -8.1246996 0
-9.9397211 24.727022 0
-9.4768591 38.624687 0
-9.5493679 31.60615 0
-8.8048773 -20.214512 0
-8.9923096 -69.00901 0
-9.251524 -6.7274971 0
-9.7964802 -9.4752598 0
-9.3285723 -35.431824 0
-10.287998 -33.368359 0
-8.8118114 -55.775135 0
-8.5040998 -34.942516 0
-9.5934639 -45.402298 0
-9.2841167 40.621681 0
-9.2093458 38.186226 0
-9.6398754 32.119568 0
-9.4216623 -30.966785 0
-9.3163881 -34.969723 0
-9.5255289 -65.123718 0
-8.2849131 -21.058601 0
-9.6371946 -11.390196 0
-9.3657713 -42.360836 0
-8.8986626 43.889511 0
-9.4059086 -53.974312 0
-9.3541374 27.228416 0
-9.0778379 38.708576 0
-9.2269754 -27.472038 0
-9.2829561 40.185535 0
-9.30474 -31.519539 0
-9.4934254 44.408501 0
-9.5473871 -6.1218858 0
-8.1332645 -23.03377 0
-8.8980694 -44.190159 0
-9.2521801 -49.011593 0
-9.1620293 32.883739 0
-9.432827 31.757677 0
-9.5115004 -29.228851 0
-9.5647326 -14.373939 0
-8.967597 39.754765 0
-8.7378435 -65.279411 0
-8.8336773 43.204391 0
-9.8393831 -14.719041 0
-9.5505514 33.819248 0
-9.3902607 -70.440041 0
-9.2954597 46.598476 0
-9.2789373 -46.728992 0
-8.8987131 -34.516293 0
-9.2554464 -42.599178 0
-9.1635342 -0.64617848 0
-9.0471983 -10.123235 0
-8.9769506 10.472622 0
-8.4753227 -43.8666 0
-9.7690725 38.381577 0
-8.6527147 -62.71529 0
-7.9372125 -4.3762054 0
-9.0499487 20.943636 0
-8.5747423 38.371033 0
-8.8914938 3.9764326 0
-9.0846901 37.62674 0
-8.8749475 -45.498394 0
-9.1301708 -49.026943 0
-9.0344296 39.04203 0
-9.8943348 -2.0348868 0
-8.6726875 -60.067272 0
-8.3272171 -72.669235 0
-6.9594784 40.662792 0
-8.3813896 -24.763115 0
-8.0799408 37.2141 0
-8.8816128 -6.1749783 0
-8.9793482 22.950962 0
-8.863286 -0.1043334 0
-8.6828003 32.817341 0
-8.7721786 31.260183 0
-9.0912056 -7.7705579 0
-9.4598856 32.170231 0
-8.871314 15.464534 0
-8.8502665 -7.208333 0
-8.9819775 34.730286 0
-9.2037401 2.68086 0
-8.7968025 25.078541 0
-8.8161182 -65.116211 0
-8.4325647 -31.066305 0
-8.535512 41.377235 0
-8.4640923 37.950619 0
-8.8127832 -40.828224 0
-9.124299 -9.3129101 0
-8.8245888 -63.531883 0
-8.8287058 -44.224163 0
-8.2605095 -71.144432 0
-9.0057592 -40.782574 0
-8.132184 41.324989 0
-8.43153 5.6571431 0
-8.653512 -41.842525 0
-9.0799379 -66.335396 0
-8.3479748 -42.30743 0
-9.131238 -68.304977 0
-8.4945135 33.802578 0
-8.7874508 44.954205 0
-8.864747 -60.182735 0
-9.0058098 -6.9520841 0
-8.8121405 46.157627 0
-9.0322199 6.3310599 0
-9.0457954 -11.954406 0
-8.8038425 46.427475 0
-8.7671165 -25.845295 0
-8.4658012 41.022888 0
-7.7415128 2.6117463 0
-8.9678497 10.2631 0
-7.9535828 -18.82869 0
-8.8288736 -20.24234 0
-8.9583397 14.4233 0
-8.7244539 -14.457644 0
-8.9485397 18.3955 0
-8.9122801 24.6222 0
-8.1959991 31.348486 0
-8.8908005 -6.3688502 0
-8.8849792 -23.929598 0
-8.6578531 -44.723377 0
-8.8612185 28.276558 0
-8.1026869 35.813633 0
-8.4632101 1.9645791 0
-8.1510582 37.867725 0
-8.558239 -40.29705 0
-8.605217 -53.431217 0
-8.554822 31.806971 0
-8.3452549 13.281336 0
-8.4432936 -29.845451 0
-8.3872232 -52.956036 0
-7.5834808 -67.623962 0
-8.4548559 -37.592545 0
-8.1366482 -48.713413 0
-8.2432175 -42.063526 0
-8.6662846 32.92931 0
-8.7994404 18.512573 0
-8.2683277 -65.117401 0
-7.2293663 -68.590271 0
-8.191021 -37.356949 0
-8.0464401 -25.767756 0
-7.5054846 36.576244 0
-8.805727 35.683865 0
-8.189043 -64.371353 0
-7.928514 38.870186 0
-8.5153046 44.259289 0
-7.9856291 -30.585659 0
-8.3157434 -66.792976 0
-8.0203543 -40.610821 0
-8.6125603 -16.340673 0
-6.737926 1.7789023 0
-8.1411219 6.4950614 0
-8.2043114 46.122581 0
-8.1017828 -13.206645 0
-8.0463762 -43.461044 0
-7.9500265 37.694553 0
-8.5861292 36.43095 0
-8.2783594 -7.0330095 0
-8.3961325 35.738461 0
-8.5235109 -9.3909254 0
-8.5842886 42.670441 0
-8.4703016 -69.662086 0
-7.3394814 -19.157043 0
-7.9784079 -43.857182 0
-7.9418416 40.604794 0
-7.9708738 -63.195934 0
-8.5190945 -11.574877 0
-7.7459221 38.768543 0
-7.9785099 -57.476692 0
-7.1498728 -67.80513 0
-8.7380857 -38.614502 0
-8.3571701 27.899319 0
-6.7631044 -21.319412 0
-8.1906176 -18.315027 0
-7.9941335 -26.961931 0
-7.7930264 -47.359955 0
-7.2232494 35.593983 0
-6.4286084 -70.628067 0
-7.7712975 -67.565224 0
-6.7977867 -70.502151 0
-8.0866261 39.739128 0
-7.720449 36.326794 0
-7.6138496 -36.967403 0
-7.8057413 -33.821495 0
-7.4849067 -32.979935 0
-8.1848173 -41.485813 0
-7.7528424 -44.551952 0
-7.6112156 34.008358 0
-7.9198203 4.4764199 0
-7.3066406 39.080521 0
-8.2157602 -7.1026802 0
-8.142374 38.806522 0
-8.4720297 -29.166227 0
-8.0166559 45.382927 0
-7.5833893 -46.43047 0
-7.6479888 41.942669 0
-8.1245975 32.37431 0
-7.7346783 45.584179 0
-7.4817781 -21.781784 0
-7.446743 8.5253649 0
-7.1791263 -66.944099 0
-7.4361563 -31.088953 0
-7.3152757 -54.176781 0
-7.8294611 -64.418938 0
-7.8735027 -43.367203 0
-7.8787775 -29.799002 0
-7.5935388 42.092796 0
-7.5186453 32.14846 0
-7.8101082 44.032173 0
-7.9127126 44.926224 0
-7.7612123 2.632441 0
-8.1712112 -72.355164 0
-7.6372399 -39.606369 0
-6.8868022 -61.488361 0
-7.8136797 33.116302 0
-7.8318434 -6.4677596 0
-8.0061636 21.122137 0
-7.6373053 23.727322 0
-7.5412736 -45.308006 0
-7.2756476 -66.548012 0
-7.286098 34.335693 0
-7.284008 -6.8577352 0
-7.8336282 17.822695 0
-7.2224054 -3.293319 0
-7.5712357 26.830511 0
-8.5146599 -33.62635 0
-7.7926779 -13.821817 0
-7.9309201 -10.69807 0
-6.6769104 -37.019371 0
-7.4148054 -40.227642 0
-7.5205088 -64.704552 0
-7.7133908 43.633892 0
-7.5272369 38.638138 0
-7.3314996 31.576548 0
-6.9205017 -60.575329 0
-7.2762985 31.695236 0
-7.8194766 31.363459 0
-7.2566104 -7.0985241 0
-7.8382874 26.298824 0
-7.0955963 -33.390869 0
-7.3136024 42.433105 0
-7.7312331 -8.955493 0
-7.6955462 -25.579168 0
-7.2576399 -73.542877 0
-7.0479445 -42.312771 0
-7.4589462 -42.389301 0
-6.9851437 38.932198 0
-7.2777705 11.305017 0
-7.7367001 22.510099 0
-7.5135837 39.039528 0
-7.7464514 35.656498 0
-7.7130499 6.5570798 0
-8.5590553 -71.065193 0
-6.9466872 -24.080124 0
-6.8180647 35.956039 0
-7.6684999 19.037399 0
-6.9304733 -73.629059 0
-7.1976924 -68.17231 0
-7.5000458 -55.293159 0
-7.0101242 0.96956235 0
-7.0661459 -31.743204 0
-7.6143198 14.9723 0
-7.2608137 32.540283 0
-7.6059299 10.7327 0
-6.7813239 5.7371907 0
-7.0440598 15.36881 0
-6.7155833 43.61512 0
-7.1534214 34.948395 0
-7.8795772 -70.960442 0
-6.7135291 42.475002 0
-7.794167 -38.221451 0
-7.1613874 -52.571915 0
-5.9521117 -45.285683 0
-7.1255579 -19.155916 0
-7.5402617 -7.6196518 0
-7.0474501 -0.8456986 0
-7.5014563 -28.560404 0
-5.6784325 43.329056 0
-6.2260346 -73.607231 0
-7.0743852 -16.61335 0
-7.2639217 -42.707169 0
-6.7331805 -41.922768 0
-7.2203226 3.1763401 0
-6.9106269 -73.33065 0
-7.1816258 43.046978 0
-6.7059245 38.484821 0
-6.9392591 -40.005726 0
-6.8954372 -20.586195 0
-6.6623273 -65.69313 0
-7.4081368 -22.593147 0
-8.084691 -2.0518281 0
-6.3721433 -70.760796 0
-7.5198913 38.627445 0
-7.3855801 -8.3973398 0
-6.3372464 9.856164 0
-6.2968655 -72.268257 0
-6.7306547 -56.703896 0
-6.7871838 -10.913799 0
-7.1727848 -58.602169 0
-7.0766892 -27.442623 0
-7.1377382 40.715942 0
-6.8787055 -5.3517642 0
-7.2862558 20.29925 0
-7.3891335 -48.58604 0
-6.824471 -40.101398 0
-6.1989336 -74.592117 0
-7.1623225 -34.813221 0
-6.8713508 33.934643 0
-6.5062432 -39.510296 0
-6.2443628 38.852116 0
-6.3529625 -69.663483 0
-7.1429367 43.939621 0
-6.7556782 -12.666278 0
-6.9148097 37.536205 0
-6.8274655 -17.345957 0
-6.6671162 -33.893078 0
-6.3714976 -47.605286 0
-6.6094222 42.439716 0
-5.7305722 -30.260183 0
-6.179522 -68.170303 0
-6.8029475 36.703953 0
-6.6644268 -42.872643 0
-6.2970638 43.132244 0
-6.9705777 17.532415 0
-6.763978 33.552227 0
-6.9869018 -10.402965 0
-6.5022402 42.405151 0
-6.7128272 -31.732954 0
-6.4841189 41.604988 0
-6.6522765 39.631676 0
-6.9512887 -29.456558 0
-6.585145 -68.473778 0
-6.4751396 37.225861 0
-7.0538192 -36.176826 0
-6.6589751 -21.092777 0
-5.9827018 -6.2072735 0
-6.5932894 38.406586 0
-6.2706547 -50.748425 0
-6.4961405 -42.069347 0
-6.2132344 -71.950089 0
-6.6314902 39.442539 0
-6.4344068 7.5934663 0
-6.6762681 -40.988338 0
-6.4258132 -73.200294 0
-6.8719268 -26.148661 0
-6.4334798 23.81151 0
-6.6231728 35.661167 0
-6.300632 -26.922348 0
-6.512157 42.263962 0
-4.7110167 -74.269875 0
-6.8299971 -8.3999701 0
-6.5723119 32.529793 0
-6.7275944 -21.455257 0
-6.5354233 -27.757502 0
-5.5653348 4.7110949 0
-6.73703 33.960667 0
-5.6856833 -68.273514 0
-6.7380767 29.315714 0
-6.6911411 21.405842 0
-6.3522544 3.8570623 0
-6.4033389 29.386534 0
-6.2481446 -41.138405 0
-6.1226254 -32.424507 0
-6.1841187 -3.9366958 0
-6.5586972 -35.004902 0
-5.9451075 38.802326 0
-6.1857758 35.584438 0
-6.6729479 37.98951 0
-5.4385772 -59.009365 0
-6.0061164 -52.217857 0
-6.1719146 0.070781358 0
-6.5428243 -36.418648 0
-6.2976503 -71.954346 0
-6.0691533 -32.943451 0
-6.2677455 -72.110924 0
-6.334321 -30.185461 0
-5.7223153 -8.1371918 0
-6.159102 -45.155941 0
-5.9075594 -73.491028 0
-6.1445894 -25.407629 0
-6.498034 42.399059 0
-6.6013799 -9.9243603 0
-6.8143291 -21.507368 0
-5.973846 26.004263 0
-6.5077581 -28.725027 0
-7.039712 -64.471741 0
-6.1566157 -69.814392 0
-5.9280138 -42.371368 0
-5.9349031 -1.4544289 0
-5.3685856 36.625916 0
-6.0908837 34.380348 0
-5.599103 -70.28318 0
-5.8287277 -74.381096 0
-4.7886176 -23.654005 0
-6.2244706 -22.201416 0
-5.9490037 -74.020264 0
-5.9096103 23.22682 0
-5.7800879 -38.180885 0
-5.9171658 40.601677 0
-6.4473338 40.056614 0
-6.4523644 33.40678 0
-6.2197795 -35.899525 0
-5.7572446 -63.987572 0
-6.2659211 18.804827 0
-6.01021 -14.639339 0
-6.3402824 -23.640535 0
-6.0939207 41.151237 0
-6.0056996 38.364937 0
-5.908308 33.265213 0
-6.2865715 -29.618189 0
-5.6956573 19.787493 0
-5.6878419 -33.478638 0
-5.8490562 -59.868858 0
-5.6895752 -2.5949972 0
-6.0930624 -42.024185 0
-5.8498631 34.699047 0
-6.1277289 38.975658 0
-6.29006 40.883858 0
-6.0138626 -34.434372 0
-6.2372231 -12.095284 0
-6.3038998 43.048901 0
-6.2965398 12.7908 0
-5.6014075 -39.2939 0
-6.2797098 6.1363201 0
-5.7913971 -39.353115 0
-5.7874422 37.876492 0
-5.5548258 -70.291893 0
-6.090097 40.542522 0
-5.5467582 -14.647872 0
-6.0837612 33.168423 0
-6.2090297 -21.15867 0
-5.5750132 15.59278 0
-6.2470999 -27.580715 0
-6.1700287 -24.661848 0
-6.1175866 -23.346674 0
-4.7102365 2.0053589 0
-5.7715626 -41.272545 0
-6.0421162 -17.753412 0
-6.006124 39.941536 0
-5.4939365 11.306372 0
-6.0578113 37.565762 0
-5.0339556 -70.775024 0
-4.9037714 -70.517082 0
-6.1735501 -20.082199 0
-5.4440327 -73.418465 0
-5.61585 -7.2209854 0
-5.7685452 -53.209038 0
-5.237206 -31.325447 0
-5.3466692 -55.317356 0
-5.8111181 -34.697262 0
-5.7092433 -72.305725 0
-5.9022484 -47.029503 0
-5.3345156 -10.381299 0
-5.5189776 -7.977828 0
-5.3172646 -49.468201 0
-5.7927847 -72.420059 0
-5.7770786 -34.920456 0
-6.0985794 -35.751656 0
-5.429987 -4.395679 0
-5.568449 34.417042 0
-5.8667045 -20.797016 0
-5.5095625 34.282055 0
-5.6846237 41.330021 0
-5.9779778 35.349712 0
-5.7571163 -40.669552 0
-5.8215313 34.945747 0
-5.6392541 42.872246 0
-5.6761374 24.757221 0
-4.7810755 2.7764394 0
-5.9625201 2.37782 0
-5.8804193 -17.067205 0
-5.9311848 -35.935711 0
-5.4453902 11.776314 0
-5.3253975 -0.93070805 0
-5.0907807 -39.009556 0
-5.7410569 39.951775 0
-5.6409817 31.96246 0
-5.8547168 32.629402 0
-5.4725108 35.080822 0
-5.8977098 17.1584 0
-5.6768503 39.988079 0
-5.0403161 -72.706245 0
-5.3985147 -19.569052 0
-5.2087069 -55.660233 0
-5.667768 -19.242157 0
-5.4311738 33.021885 0
-5.6207566 20.535803 0
-5.4360452 -39.20015 0
-5.5649567 -13.726629 0
-5.7560701 -11.3436 0
-6.1275663 36.217262 0
-5.4021525 38.516598 0
-4.791048 -70.066826 0
-3.8562398 -55.607449 0
-5.16713 -63.135509 0
-4.8525901 41.337994 0
-5.2512927 38.332893 0
-5.4546876 33.02776 0
-5.4351163 -41.125378 0
-5.2096663 29.718857 0
-5.5561399 34.44463 0
-5.2261977 44.509769 0
-5.2797275 -15.987184 0
-4.7809615 1.1945459 0
-5.4214554 44.187416 0
-4.9244461 -20.658663 0
-5.1903629 39.812168 0
-3.7585969 -75.309975 0
-5.5510311 29.969124 0
-4.4274392 -66.265343 0
-5.0598779 38.870365 0
-4.5978451 -72.763397 0
-4.2522559 -74.671181 0
-5.1292491 15.446897 0
-5.2296438 -67.657135 0
-5.9942217 -49.525887 0
-5.2450552 -12.527719 0
-4.1607246 35.99844 0
-5.3251534 -72.472641 0
-3.8644547 -75.660515 0
-4.0955672 -43.644958 0
-4.7258735 -46.507744 0
-5.4573383 -17.52227 0
-4.1373062 -74.856224 0
-5.3750901 43.815899 0
-4.5083814 -27.690571 0
-5.0263186 37.27195 0
-5.0987554 32.740631 0
-4.9217892 35.114254 0
-4.8418336 -4.6970782 0
-4.6579542 -62.76387 0
-4.9964709 33.741291 0
-4.2675395 -73.74015 0
-4.7503023 21.386253 0
-4.8601513 13.158761 0
-4.9097629 9.0772066 0
-4.5622463 -18.143026 0
-4.6272283 -9.7559795 0
-4.9310637 34.818165 0
-3.6193323 4.5116901 0
-4.8130078 42.941002 0
-4.7011895 -14.001234 0
-4.6693892 -41.129044 0
-4.2560582 18.162426 0
-5.0035615 44.789104 0
-4.5309501 -2.8491981 0
-4.3764153 -70.68499 0
-4.265831 3.5999479 0
-4.83571 27.152416 0
-4.7171636 36.495686 0
-3.7120628 -51.965221 0
-3.9147782 -59.855 0
-5.0990272 39.437393 0
-4.2397017 -65.722862 0
-4.9361296 -72.593185 0
-4.9905658 45.591183 0
-4.710649 43.716358 0
-4.8818321 -15.513032 0
-4.8075552 37.553669 0
-4.3857865 -6.1981936 0
-4.7486143 45.284687 0
-4.9106302 -11.8311 0
-4.4559293 -33.28265 0
-4.2368393 -49.406929 0
-4.1188993 -3.404757 0
-4.8113742 47.892204 0
-4.9124184 -26.666033 0
-4.5892663 30.330048 0
-4.3561926 -45.701698 0
-4.1912322 -44.745758 0
-4.2169967 7.1492205 0
-4.1316223 2.9586155 0
-3.9824643 22.963812 0
-3.920855 -11.416067 0
-4.0280414 -75.622566 0
-4.2321386 -74.873291 0
-4.2239847 32.012959 0
-4.73208 34.14912 0
-4.2737918 -40.618401 0
-4.3977246 37.926628 0
-4.3557639 -71.557343 0
-4.4006538 50.895954 0
-4.2759905 -1.6391127 0
-4.3019862 45.272156 0
-4.5328789 -72.65316 0
-3.2158396 -75.91333 0
-4.2331676 0.14664686 0
-4.1473999 -74.184357 0
-4.4536719 44.271984 0
-4.1726899 -7.5606823 0
-4.448864 -74.58091 0
-3.5952909 -17.247839 0
-4.5075698 -11.7371 0
-4.0281487 -19.45096 0
-3.8815253 -74.226372 0
-3.54866 -53.529118 0
-4.3913269 48.206066 0
-3.6690753 -21.067089 0
-3.5461276 34.163864 0
-4.1069703 51.997406 0
-3.9126813 15.198124 0
-4.3917971 36.731167 0
-3.8027966 34.042015 0
-4.0109191 42.921055 0
-3.7020314 -72.905792 0
-3.8209038 -30.191343 0
-3.309056 -59.722427 0
-3.8339431 31.762823 0
-3.1279624 -53.195328 0
-4.29356 50.187698 0
-3.7650225 -14.952826 0
-3.6197271 -76.129234 0
-3.2902668 -69.195259 0
-4.222024 36.241421 0
-3.9183538 -70.72892 0
-3.8920445 28.547541 0
-3.7658463 29.321665 0
-4.2095594 46.146141 0
-2.4658289 40.277699 0
-3.3389452 -70.74707 0
-3.7354419 -72.774963 0
-3.4202919 -73.011124 0
-3.3946826 -34.184158 0
-3.087605 -38.753273 0
-3.432116 43.253578 0
-3.930016 -56.100151 0
-3.6595118 26.77507 0
-4.0446854 52.375896 0
-3.0724711 -39.38678 0
-3.3545861 -67.498871 0
-3.503804 -70.406227 0
-3.8331027 57.989231 0
-3.0227442 -49.878704 0
-3.8492377 -27.994228 0
-3.5563273 23.809601 0
-2.7894526 -72.584534 0
-3.2874646 -71.111511 0
-2.8008347 -64.065666 0
-2.4036613 -28.221022 0
-3.2569585 -69.248665 0
-3.546277 -13.993895 0
-3.8812144 35.408237 0
-3.617872 59.077061 0
-3.7000358 -70.71225 0
-3.7899125 -71.344276 0
-3.0417042 39.068752 0
-3.6953697 44.454926 0
-3.3782587 20.183973 0
-3.6596313 56.490101 0
-3.2788022 -23.085211 0
-3.6587722 66.959 0
-3.6521964 -71.20562 0
-3.5239198 49.609627 0
-3.4186475 27.302864 0
-3.2130942 -12.463862 0
-3.1448007 -16.050671 0
-3.2102251 -8.6702662 0
-3.2187948 -5.0592794 0
-3.3023636 -19.668207 0
-3.2487271 15.944037 0
-2.7502007 -1.269392 0
-2.2671208 -74.388832 0
-3.209322 17.251762 0
-3.5850768 73.383354 0
-3.5620301 19.9086 0
-3.4058287 -74.477135 0
-3.1702991 11.592362 0
-3.535233 47.048607 0
-2.9900987 -74.016769 0
-3.4871738 79.260834 0
-3.3622253 33.345001 0
-3.491437 66.707565 0
-2.7330222 -71.210411 0
-3.4604709 60.135952 0
-3.0159407 42.788982 0
-2.8887246 44.837124 0
-3.3910623 71.849976 0
-3.622124 51.443054 0
-2.9159288 -76.003937 0
-3.365814 84.687996 0
-3.3563385 66.942566 0
-3.0636122 -70.174156 0
-3.0356705 -46.189816 0
-2.7137716 -72.770782 0
-3.2843647 -72.950775 0
-3.3151002 52.698441 0
-2.1804919 9.5659142 0
-2.565666 -75.58345 0
-3.3275802 78.463638 0
-3.3130658 73.573952 0
-2.541595 6.6109891 0
-2.7439623 -50.035305 0
-3.0501661 -13.971444 0
-3.27686 22.0828 0
-3.2652695 90.490456 0
-2.8944898 -41.978687 0
-3.2162647 79.430344 0
-3.2265766 84.499207 0
-3.1863043 31.744282 0
-1.6551056 -55.821716 0
-3.2164199 27.2418 0
-3.1381743 96.626869 0
-2.8181036 3.3630009 0
-2.9130027 37.311123 0
-3.1868601 24.505199 0
-2.9331348 56.673889 0
-2.7127659 -46.028366 0
-2.3921795 -70.715912 0
-3.1218636 30.560358 0
-3.0519345 -73.015732 0
-2.610122 -19.49016 0
-3.0480247 85.005096 0
-3.1162469 90.282463 0
-2.380332 -76.963799 0
-2.4103777 -75.538963 0
-2.6993172 53.19944 0
-2.7382889 42.552242 0
-1.7777581 -73.034767 0
-2.9869103 112.0992 0
-2.051688 -31.639481 0
-2.5584404 36.988445 0
-2.5843537 -69.518997 0
-2.6543632 19.482836 0
-2.558434 -16.092901 0
-2.017184 -7.0133915 0
-2.9812005 59.653248 0
-2.9961693 96.207794 0
-2.9600992 90.875664 0
-1.1040384 34.526299 0
-2.6740677 -67.946564 0
-2.6249502 -74.583961 0
-3.0861037 -73.194878 0
-2.5424242 43.594742 0
-2.8439729 112.47201 0
-2.8774025 66.161636 0
-2.031477 -73.98632 0
-2.4680767 -67.75856 0
-2.479131 44.506195 0
-2.8505609 96.722435 0
-2.9100432 46.665947 0
-3.2227657 -70.307877 0
-2.4576328 49.535072 0
-2.4638276 -71.997124 0
-2.5053942 -34.020695 0
-1.3658704 -73.100166 0
-2.63516 118.52224 0
-2.2320096 -75.391815 0
-2.7727401 71.851112 0
-2.7243919 111.69944 0
-0.56389856 -25.531067 0
-2.5065296 25.48641 0
-2.7208869 61.100567 0
-2.1392012 12.238179 0
-2.7049325 77.87709 0
-2.3321347 -9.4894638 0
-1.2732373 -55.773087 0
-2.6415558 83.455238 0
-1.2667999 -53.618942 0
-2.537843 118.47119 0
-2.6633639 67.098969 0
-2.4400005 28.948933 0
-2.4483199 50.902466 0
-2.6152256 73.841019 0
0.00364459 -60.386372 0
-2.5244136 79.969292 0
-2.5474238 89.94207 0
-2.4038181 118.52724 0
-2.0879569 -74.125992 0
-2.1697125 -31.02577 0
-1.6578716 -72.822334 0
-2.4364202 95.92662 0
-2.1210449 2.7439907 0
-2.1705928 -14.308565 0
-2.1478016 7.0459223 0
-1.9814165 -75.745567 0
-2.3799834 85.755089 0
-2.3163528 112.38621 0
-0.92931938 -72.083359 0
-2.2942095 52.832642 0
-2.2965612 92.219177 0
-1.1983616 -18.805582 0
-2.2161608 -76.827797 0
-2.5381002 -57.640827 0
-1.0493616 32.484558 0
-0.71254754 -74.342651 0
0.00134388 -1.5098835 0
-0.01489341 -0.54674578 0
-1.3565245 -64.29615 0
0.0151203 -2.6464489 0
-0.00123322 0.13159864 0
-0.81907773 29.906073 0
-2.2152905 97.368462 0
-1.8391227 -70.713753 0
-0.06545651 -3.156018 0
-2.1331375 117.93639 0
-1.7613884 17.315454 0
-0.00188172 1.0958269 0
-0.082377426 5.1584644 0
-1.1510113 -48.038998 0
-1.5667573 -77.152542 0
-0.7168535 1.4038725 0
-2.12251 111.37646 0
-1.7858567 -68.58403 0
-2.5122309 2.1912117 0
-1.0617139 -32.994953 0
-2.0474412 59.803253 0
-1.3296344 -21.411987 0
-1.4429157 36.295959 0
-1.725592 -72.630478 0
-0.0021327101 -34.216904 0
-0.75252879 -52.413986 0
-1.0942011 -23.658577 0
-2.1181011 46.342491 0
-1.7499524 -68.059639 0
-1.9193836 118.26206 0
-2.0009899 56.651501 0
-1.958617 66.570503 0
-1.9206774 119.83061 0
-1.2567046 41.511353 0
-1.8788652 71.760719 0
-1.4398171 48.202034 0
-1.9076474 -69.610596 0
-1.5823509 -42.386108 0
-1.7835802 61.074345 0
-2.5665281 40.744686 0
-1.8288009 77.695534 0
-1.7919419 38.052929 0
0.0040918002 -64.302086 0
-1.4323988 -68.590469 0
-0.50522959 -76.117195 0
-1.2497196 34.135418 0
-0.062076699 -65.929741 0
-1.8118254 82.797661 0
-1.2540869 -44.525143 0
-0.63057959 31.869505 0
-1.823989 53.519512 0
-0.54411423 29.398111 0
-1.2566993 120.12469 0
-2.1361012 25.176722 0
-0.82858998 -74.595749 0
-1.7245947 -64.713516 0
-1.2409497 43.727474 0
-1.8097924 67.298042 0
-1.7319664 89.758446 0
-1.1258525 -70.228806 0
-1.7086372 75.046036 0
-0.4613086 26.752762 0
-1.6658753 -66.445625 0
-1.1036872 -49.408195 0
-1.6518102 95.819038 0
-1.1392549 45.830853 0
-1.1132271 -39.759365 0
-1.2474294 23.744913 0
0.099294573 -56.52586 0
-1.6412479 80.849358 0
0.0031749899 -75.973511 0
-1.0239444 -72.562477 0
-1.4583155 -69.076469 0
-0.95456278 -74.771477 0
0.026104391 -68.176239 0
-1.5696459 112.48888 0
-1.5551593 -66.691208 0
-1.5594523 85.053215 0
-0.00060022 19.960398 0
-0.91418803 -45.558052 0
-0.01937538 -22.179483 0
-0.7591778 -42.038193 0
-1.5381081 87.788795 0
-1.1534473 -12.762073 0
-1.0631179 -8.3153877 0
-1.1127146 117.75644 0
-1.490519 -70.909164 0
-0.99850297 -77.873024 0
-0.15224069 -28.546114 0
0.00047838999 15.672589 0
-0.99131787 -15.970918 0
-1.4867675 92.991524 0
-1.0118546 11.420224 0
-1.1519232 120.43958 0
-0.1628862 -19.501957 0
-1.439795 97.777328 0
-0.68903625 120.42271 0
-0.80929375 24.460575 0
-1.3808665 107.59882 0
-1.5019914 119.24473 0
-1.3520976 116.71633 0
-0.76161629 27.057592 0
-0.51833814 20.49748 0
-0.89990979 -50.346546 0
-0.80215001 -76.965935 0
-0.4520939 -76.836449 0
-0.89888358 -67.260384 0
-0.83036524 -73.856354 0
-0.56008214 -77.398697 0
0.7180441 -38.373119 0
-0.8690412 -57.732357 0
-1.1672306 -72.866524 0
-0.75992048 119.5108 0
-1.1864178 51.619808 0
0.33416682 -73.956848 0
-1.2870952 -78.00708 0
-1.1595936 54.416443 0
-0.71192461 -65.254326 0
-1.1553847 9.0609465 0
-0.47100839 -65.317719 0
-1.043806 -66.359695 0
-0.79831582 -76.859329 0
-0.56102091 -71.045021 0
0.20639925 3.736537 0
-0.60181177 45.420963 0
-1.0289147 60.549061 0
-0.5556128 49.593513 0
0.0036824399 -70.275925 0
-0.4302921 43.7817 0
-0.05696651 -7.7798228 0
-0.91389853 12.218543 0
-0.71245706 -73.519814 0
-0.99339658 67.423256 0
-0.76665831 -71.051788 0
-0.95799965 72.901802 0
-0.86529219 61.705097 0
-0.50100112 -69.746536 0
-0.99400485 53.692028 0
-0.37239474 -75.225098 0
-0.92152053 77.540871 0
-0.9124769 -68.000183 0
-0.91306853 82.441307 0
-0.0032017899 -76.217033 0
-1.1490631 -69.74028 0
-0.87169302 88.919312 0
-0.84442276 69.325691 0
0.00137192 -35.663593 0
-0.30465123 42.640377 0
-0.76383322 36.604294 0
-0.84088683 95.561798 0
-0.12908627 37.350235 0
-0.80250609 76.314491 0
-0.62614357 -64.315956 0
-0.056885701 42.364536 0
-0.80630779 100.72871 0
-0.6449036 -74.070488 0
-0.5006429 80.982925 0
-0.78620082 112.19801 0
-0.01317507 -31.828691 0
-0.39414346 16.032162 0
-0.7632913 86.44194 0
-0.27755079 39.593056 0
-0.48485664 -78.171799 0
-0.71999496 92.390694 0
0.10815197 35.534008 0
0.45680982 -1.516117 0
0.18407434 -12.556595 0
0.37139478 2.5070589 0
-0.71088958 97.522614 0
0.31253749 6.7604342 0
-0.44688752 -64.279816 0
-0.34248751 -67.669022 0
-0.66920978 111.05595 0
-0.26777759 -77.632622 0
-0.73563874 119.81348 0
0.00202096 -73.684418 0
-0.036189821 -16.594343 0
-1.637449 -68.025383 0
0.23073164 -71.915535 0
0.69834936 -67.830452 0
0.56057507 -74.791801 0
0.0020058199 -71.420685 0
0.19474407 30.631578 0
-0.070456527 17.641304 0
0.00221832 -73.890594 0
-0.034061249 33.598019 0
0.32628089 -78.416435 0
0.063606389 -75.400993 0
0.069539897 -70.410385 0
-0.058641411 -76.771873 0
0.30898225 13.62393 0
0.21173531 -4.9324155 0
2.9227571 -32.541962 0
0.53800195 -39.926105 0
0.82909095 -45.528107 0
2.7249763 2.5096855 0
0.00108076 9.860507 0
0.61885005 11.312829 0
0.72890937 23.710958 0
0.31703666 44.456593 0
0.35510039 47.302402 0
0.00012755 51.39666 0
0 53.71236 0
0 54.65863 0
0 61.903088 0
-0 60.884842 0
0 69.077827 0
0 68.157387 0
-0 73.430496 0
0 76.216751 0
0 77.331154 0
-0 81.886307 0
0.37816522 85.162003 0
-0 86.269859 0
0.40708321 87.562485 0
0 92.598083 0
-0 91.737839 0
-0 97.639656 0
0 96.599014 0
-0 100.63135 0
-0 106.82893 0
-0 111.83976 0
-0.24008761 118.10364 0
0 118.17726 0
0.5684045 119.85126 0
0.75021982 120.10738 0
-0 120.63905 0
1.1187524 -49.412685 0
1.0560372 -12.841857 0
0.0036273501 -53.479027 0
0.70669019 -55.894104 0
0.93659908 -57.709042 0
1.1639981 -22.261911 0
-0.1467723 -70.759544 0
0.62326515 -30.814575 0
0.48159981 -64.289268 0
0.48820743 -65.294342 0
0.23442341 -73.703743 0
0.6978386 -64.526054 0
-0.24704672 -31.247227 0
1.1265512 -69.690102 0
0.0021385399 -66.294945 0
0.6198926 -74.177711 0
0.45869356 -74.569572 0
0.58114034 -68.001961 0
2.3095434 -42.823215 0
0.82009786 -44.514156 0
-0.45452076 -70.893005 0
0.23946713 -48.112164 0
0.46786648 -51.697552 0
0.15063184 -53.020531 0
0.27752098 25.020845 0
0.39573795 18.215509 0
0.57419264 27.406725 0
0.80658501 -76.965157 0
0.66242182 -72.593163 0
1.0521486 -75.496613 0
0.32476416 -77.456902 0
0.22987029 -75.345398 0
0.6926353 -76.485374 0
0.61527222 -70.779228 0
0.63408297 -67.671692 0
0.55375242 14.924698 0
0.069245622 -73.629906 0
0.63559604 -72.049484 0
0.80353856 -76.859291 0
1.0009943 -73.435638 0
1.1664071 -73.621674 0
1.130559 118.41409 0
0.82581574 31.958931 0
2.6692774 -17.844143 0
0.1628499 -74.954094 0
0.66636086 116.65553 0
0.77018493 -76.07048 0
1.2563514 -53.617535 0
1.0493798 120.27612 0
1.2756417 -78.019966 0
0.66780776 107.71161 0
0.71088958 97.522614 0
0.98313212 -18.848694 0
1.7162901 -72.72789 0
1.5719804 -77.152313 0
1.728816 -11.731539 0
1.1127146 117.75644 0
0.71999496 92.390694 0
1.0638118 -15.963177 0
1.1426636 -8.1479359 0
1.1519232 120.43958 0
0.0037324999 -63.001827 0
2.8494208 -28.370176 0
1.4188007 -42.093193 0
1.9306171 -74.098129 0
0.78620082 112.19801 0
0.80777854 80.940651 0
1.9397184 -7.6540694 0
2.7178216 -30.812355 0
1.461871 36.240955 0
1.2488089 -70.90506 0
0.80630779 100.72871 0
0.80250609 76.314491 0
0.84088683 95.561798 0
0.98329049 17.283012 0
2.8873372 42.568962 0
1.1329154 21.721767 0
0.84442276 69.325691 0
1.491828 39.460567 0
1.3581251 37.641998 0
1.0036378 -77.872902 0
1.3411785 35.119316 0
0.87169302 88.919312 0
0.86529219 61.705097 0
0.90087444 -67.209518 0
1.3181064 43.107346 0
1.7075886 23.329603 0
0.91306853 82.441307 0
0.99400485 53.692028 0
0.92152053 77.540871 0
1.4644631 -69.669708 0
1.5212245 -64.712143 0
1.1731919 -70.144745 0
0.95799965 72.901802 0
1.7736447 43.270748 0
0.99339658 67.423256 0
0.99054354 49.686596 0
1.0480876 -66.359604 0
1.0289147 60.549061 0
1.7766744 9.9057646 0
1.6492521 44.260807 0
3.063601 1.9700857 0
1.6181071 -72.912598 0
1.3251376 33.682034 0
1.1207895 45.734188 0
1.1595936 54.416443 0
1.6823957 12.639868 0
1.5019914 119.24473 0
1.1241709 9.0718431 0
1.7285988 -65.03476 0
1.1861812 51.624283 0
1.4009279 -68.543381 0
3.7699606 -66.078438 0
2.1304421 -14.423393 0
1.1417605 -71.358131 0
1.4131938 28.308386 0
1.4623249 -69.076393 0
1.6226978 -72.774994 0
2.3364677 -75.510551 0
1.921326 -29.484285 0
1.1069957 -64.35672 0
1.7898954 -68.583786 0
1.5804417 40.18108 0
1.375664 111.16667 0
1.8018918 -48.421444 0
1.439795 97.777328 0
1.9115397 -75.875443 0
1.7190841 119.68723 0
2.0923293 -74.125534 0
1.4867675 92.991524 0
1.8270029 25.537529 0
2.9776354 -20.518614 0
2.3236017 -68.942131 0
1.5381081 87.788795 0
1.6596493 30.225195 0
2.0660629 -55.790176 0
1.5696459 112.48888 0
1.5594523 85.053215 0
1.5592628 -66.69101 0
2.4971061 -45.142834 0
2.9243696 -39.305771 0
3.4813683 -70.818565 0
3.7230656 -70.421761 0
1.6412479 80.849358 0
1.6518102 95.819038 0
1.7542793 -68.059494 0
1.8222873 46.324799 0
2.2215261 -76.827415 0
1.6700571 -66.445366 0
1.6307242 17.648693 0
2.1938214 -45.419781 0
3.2645679 -69.248734 0
3.6275632 -24.720387 0
2.7935519 -72.584084 0
1.7086372 75.046036 0
1.7319664 89.758446 0
3.3156862 -59.721371 0
3.0985553 -74.04142 0
3.367867 -34.621063 0
1.823989 53.519512 0
2.3850539 -76.963593 0
2.4662175 26.68215 0
1.8097924 67.298042 0
1.9094552 -70.72229 0
2.8368461 -75.796181 0
2.5110857 29.239967 0
1.7835802 61.074345 0
1.8118254 82.797661 0
2.5417855 31.680662 0
2.5701115 40.738716 0
1.9193836 118.26206 0
2.7177408 -72.770477 0
1.8288009 77.695534 0
1.84881 15.3171 0
3.1055641 9.3222275 0
2.2193615 13.301095 0
1.9206774 119.83061 0
3.1772859 -39.103916 0
1.8788652 71.760719 0
2.4717951 -67.758255 0
2.132504 -70.748611 0
2.4483199 50.902466 0
2.1329684 -56.23288 0
2.0422993 31.801014 0
1.958617 66.570503 0
2.1331375 117.93639 0
2.0474412 59.803253 0
2.7370667 -71.210236 0
3.2480631 -75.880569 0
2.1218214 46.424023 0
3.0303032 -49.873833 0
3.2945993 -69.193176 0
2.2598679 28.249569 0
2.12251 111.37646 0
2.0405743 21.9034 0
2.9204776 -76.003426 0
2.3729849 34.007248 0
2.4038181 118.52724 0
2.1203914 27.347441 0
2.4852443 -75.653938 0
3.133806 -53.202095 0
2.1086466 23.684431 0
2.4081485 -72.174316 0
2.2152905 97.368462 0
4.6794834 1.1852652 0
2.2364092 -75.391457 0
3.0442066 -59.485214 0
3.2163432 4.5417571 0
2.2942073 52.832672 0
2.537843 118.47119 0
3.8060036 -3.5447273 0
2.2958546 -64.111168 0
2.3627381 7.2123199 0
2.2965612 92.219177 0
4.6649179 -62.762486 0
4.5445285 -2.845268 0
2.3163528 112.38621 0
2.6470783 -74.643127 0
4.2114339 -1.6129069 0
2.8344734 -18.810741 0
2.63516 118.52224 0
2.2969401 18.6525 0
2.1429594 55.31863 0
2.3799834 85.755089 0
2.7289691 -48.715206 0
2.5885074 -69.518532 0
2.4573188 49.535568 0
2.4364202 95.92662 0
2.5182636 29.31064 0
2.9012868 44.756245 0
3.7375665 -67.625496 0
3.1328199 7.1545405 0
3.169735 11.59271 0
3.0584121 -70.2276 0
2.5729754 38.935287 0
3.1169171 2.8835027 0
2.5244136 79.969292 0
3.1456816 -16.055733 0
2.7832146 -15.767157 0
4.8236256 -65.089859 0
3.1462986 -1.1663046 0
3.2469227 15.941377 0
2.5474238 89.94207 0
3.2187772 -5.0599599 0
3.2094579 -8.6748381 0
3.2141101 -12.469777 0
2.8838906 11.131711 0
3.2913487 -71.111229 0
3.3761296 20.192892 0
2.6152256 73.841019 0
2.6415558 83.455238 0
2.6633639 67.098969 0
2.7243919 111.69944 0
2.6778784 -67.946136 0
3.0376453 -74.206207 0
3.4250576 43.256443 0
2.8506546 36.951313 0
2.6580687 16.425068 0
2.6992099 29.9963 0
2.7049325 77.87709 0
2.7208869 61.100567 0
3.5562632 23.81386 0
3.3425457 -70.746307 0
2.7727401 71.851112 0
2.8439729 112.47201 0
2.7725818 21.492594 0
3.4243333 -73.010536 0
2.9168708 46.534569 0
3.7190318 -51.970116 0
2.9475477 23.693935 0
2.8505609 96.722435 0
2.9331348 56.673889 0
3.7601521 -9.2569942 0
2.8774025 66.161636 0
3.1443686 31.149996 0
3.5189035 -23.990772 0
3.1955795 51.85635 0
4.7450328 -7.4551363 0
2.8018301 -14.043877 0
4.4342194 40.948536 0
2.9869103 112.0992 0
3.0223372 -74.004288 0
3.3340671 44.915714 0
3.708982 -20.541624 0
3.0919893 -73.19445 0
3.6247585 -76.128731 0
3.5555539 -53.535667 0
2.9600992 90.875664 0
2.9961693 96.207794 0
2.9812005 59.653248 0
3.4585161 24.753683 0
3.4767325 43.874043 0
3.7043107 -70.711731 0
2.7359469 42.549892 0
3.7941933 -71.343826 0
3.0578504 -73.015343 0
3.0480247 85.005096 0
3.861727 -55.606949 0
3.1162469 90.282463 0
3.9168799 36.784145 0
3.8022532 34.041584 0
3.2234428 31.469635 0
3.6708655 -32.614292 0
3.3151002 52.698441 0
3.1381743 96.626869 0
3.4119508 -74.476669 0
4.5986791 -5.8699145 0
3.2265766 84.499207 0
3.1814711 -21.815727 0
4.3089266 -46.280544 0
3.2900124 -72.95047 0
3.2162647 79.430344 0
4.2459445 -74.43821 0
3.8219121 -41.15089 0
4.0577927 3.621944 0
3.7246249 -16.114641 0
4.4301496 -66.265038 0
3.2652695 90.490456 0
4.1002731 -74.59848 0
3.1921849 14.146767 0
4.0327897 -75.621971 0
4.1530871 -74.183731 0
3.3275802 78.463638 0
3.2725024 6.0562596 0
3.3130658 73.573952 0
3.365814 84.687996 0
4.678515 40.048805 0
3.8857436 -74.226173 0
3.3563385 66.942566 0
3.5155809 -11.992352 0
3.5627675 -10.80329 0
3.3910623 71.849976 0
4.3595834 -71.556999 0
3.6563179 -71.20507 0
3.4604709 60.135952 0
3.5035501 46.832352 0
4.0889015 0.09893252 0
4.1719356 -75.573334 0
3.4871738 79.260834 0
3.5086117 -14.878161 0
3.7335424 51.674561 0
3.548202 49.4361 0
3.491437 66.707565 0
3.7073393 -72.905434 0
3.5745277 34.575871 0
3.617872 59.077061 0
3.5850768 73.383354 0
3.5078917 -70.405701 0
3.5370107 19.064892 0
3.6587722 66.959 0
3.6596313 56.490101 0
4.1429977 7.9346642 0
4.3886652 -44.30521 0
4.3804049 -70.684326 0
4.3491206 -56.698223 0
3.8331027 57.989231 0
3.994267 21.026424 0
4.1526322 17.480982 0
4.554965 -27.995754 0
5.4151278 37.867676 0
4.1095686 -11.371765 0
3.741245 -72.774368 0
4.8715134 -59.783337 0
4.0882339 25.41382 0
3.9666519 26.782471 0
4.045053 -14.18346 0
4.3405504 -45.751034 0
4.2382698 -49.414917 0
3.8933446 12.197144 0
4.044683 52.3759 0
4.3480034 45.12505 0
4.1180515 51.901836 0
4.1497521 -29.802151 0
4.6675587 5.4355903 0
3.9974015 42.817886 0
5.6893153 -68.272736 0
4.2362738 23.505911 0
4.1967931 46.190025 0
4.7384553 27.425095 0
5.4450102 -59.008564 0
4.1969299 -8.8656492 0
4.0720935 32.566254 0
4.7688961 26.64563 0
4.4551568 -74.58033 0
4.3100743 7.2865152 0
2.5833018 -34.342442 0
4.5788579 -7.6738734 0
4.5636797 -18.14739 0
4.4014363 50.895428 0
4.2452025 -12.437053 0
4.4791698 15.868927 0
4.8733249 2.6816249 0
4.605082 -72.762428 0
5.0593386 38.873596 0
4.7028017 43.718182 0
4.9087248 29.173246 0
5.4487805 -73.41777 0
4.1738563 4.6746893 0
5.4865398 35.00795 0
4.2568264 -74.670311 0
4.5081916 -27.225426 0
6.015069 -61.191463 0
4.5212293 -74.507721 0
4.29356 50.187698 0
4.9013743 -70.259636 0
5.0019021 31.579948 0
4.4641509 44.297718 0
4.4302077 47.914581 0
5.3490548 -55.314861 0
5.3271756 -49.372684 0
4.8542175 19.249054 0
4.6524363 -18.302601 0
5.3547091 -40.929577 0
4.5729394 25.309839 0
4.7634716 24.599985 0
4.6676049 45.950584 0
5.2374482 -67.656158 0
5.1589861 -23.308615 0
5.0412717 -70.774216 0
4.5270901 -15.237 0
4.7292037 -13.404773 0
4.5384398 -72.652557 0
5.0932693 -39.001991 0
5.0043073 -70.523903 0
6.2313628 -73.606537 0
4.6005778 -10.19715 0
4.6632872 10.795917 0
5.0446467 -72.705437 0
4.8343306 -32.691742 0
4.9006457 14.431326 0
4.8318782 47.716267 0
4.935689 -3.9215786 0
6.2207837 -71.94899 0
4.8256578 42.927338 0
5.4846277 27.839722 0
5.0831313 45.577755 0
5.8353438 -74.380608 0
5.3945589 2.6725402 0
5.4920163 11.305535 0
4.8089399 6.99474 0
5.1279335 22.795135 0
5.9031 32.724579 0
5.3262801 -0.93288761 0
4.909946 26.817375 0
3.7653 -75.309341 0
4.8654895 -24.491732 0
5.0043764 44.763714 0
5.4303102 -4.4012966 0
5.5748243 15.616407 0
5.5186987 -7.9848657 0
5.457274 -41.487404 0
5.358305 -11.021438 0
4.9108601 -11.838 0
5.0841064 -6.9364161 0
5.4305401 -8.8991003 0
5.6034074 -70.282257 0
5.1556635 44.164841 0
5.0022178 -21.761738 0
5.0976963 -24.089327 0
4.9416847 -72.592491 0
6.2051539 -74.591438 0
5.5482006 -14.654808 0
5.2115793 30.149857 0
5.1517649 -16.154074 0
5.0414801 -35.041229 0
5.6953468 19.79966 0
5.2458715 29.091272 0
5.7341938 -31.617514 0
4.9782543 -22.62723 0
5.3765464 27.566696 0
6.0110092 -52.22731 0
5.4749155 5.7280054 0
6.2714763 -50.749775 0
4.9508648 3.7398932 0
5.3282619 -22.5158 0
5.6117043 -53.455875 0
5.3418326 -29.560843 0
6.8930888 -61.486958 0
5.7997198 -72.418739 0
5.5983572 41.701149 0
5.610673 -7.454627 0
5.2833619 -24.624125 0
5.6869898 -33.467628 0
5.4818749 5.9883299 0
5.9098372 23.232908 0
5.7043862 2.2133648 0
5.2599354 -25.524399 0
5.9156837 40.604 0
5.420651 44.201111 0
5.5965819 12.061279 0
5.7861657 -38.187767 0
5.493474 -21.9876 0
5.5898466 31.646692 0
5.4407187 44.149876 0
5.9128633 -73.490074 0
5.3909521 27.879808 0
5.6929388 -2.5546131 0
5.3307347 -72.47184 0
5.2855678 8.850606 0
5.6892505 -26.016703 0
5.9034734 -47.035286 0
6.0111117 40.371487 0
6.0575862 -19.606554 0
5.9554038 -74.019455 0
5.7043014 -23.002747 0
5.9946599 -49.526997 0
5.4591584 -8.4169893 0
5.6070027 29.095194 0
5.7559772 43.445091 0
5.6075501 -24.766069 0
6.0918465 -63.356606 0
5.4071755 31.549011 0
5.8514285 14.578574 0
5.4793167 -5.586586 0
5.8818865 -22.209011 0
5.8143482 -6.9800382 0
6.0599303 1.637033 0
5.9749579 -14.009695 0
5.5623207 -70.291229 0
6.6365838 -56.740047 0
5.671771 -19.120935 0
5.9026952 -1.37507 0
5.7824883 -5.6174564 0
6.9854317 4.0240569 0
5.6073089 42.937836 0
6.1322212 -45.299347 0
6.0061741 -25.997269 0
5.9452372 17.169029 0
5.8329759 29.469038 0
5.555819 34.444908 0
5.9558406 -45.277611 0
5.6723871 -9.5401497 0
6.376358 -70.75985 0
5.6659961 -7.3920522 0
6.7508106 0.98135793 0
6.0489626 -19.448143 0
6.2996693 -26.895824 0
5.7168202 -72.303963 0
7.2640119 -73.541679 0
5.6995211 -18.503523 0
5.7866397 23.51053 0
6.1508408 24.520041 0
5.6530261 -17.267002 0
5.8434982 -25.856524 0
5.7865114 9.9446955 0
6.3762598 -47.599709 0
6.187191 -11.215073 0
5.7792935 -10.766639 0
6.4315624 -73.199341 0
6.301537 -72.267426 0
7.057888 -42.294064 0
5.8023577 -24.32995 0
6.2339664 -5.191751 0
6.2128048 -16.552723 0
6.1272359 28.539558 0
6.1809106 -14.497154 0
7.2392726 -3.2003334 0
6.2167163 34.007404 0
5.8589602 -32.1082 0
6.2070518 -6.798213 0
6.1246009 -10.924509 0
6.3770967 -19.306534 0
5.9770446 -16.780712 0
6.1874065 -68.169624 0
6.0688725 33.663551 0
6.5694113 -23.278776 0
6.0620875 32.39978 0
5.918704 3.1632025 0
7.3604836 36.48354 0
5.9779787 -34.670994 0
6.6698904 -65.692276 0
6.0600896 28.78681 0
6.2180524 -9.8638048 0
5.9948688 -18.082596 0
6.6579342 -70.577431 0
6.3540263 30.447435 0
6.4435511 -16.592913 0
6.0959473 -12.047192 0
6.5107307 30.521101 0
6.16435 -69.813454 0
5.962575 -9.0184212 0
6.8333359 -20.613586 0
6.0250573 21.730457 0
6.2287078 -8.3124924 0
6.1164031 22.243153 0
6.1520638 28.274992 0
6.1854482 -4.6110792 0
6.0763159 -11.608637 0
6.8054709 -70.501068 0
6.1973572 22.531473 0
6.9167171 -73.329727 0
7.1322656 40.718117 0
6.2035971 -12.718491 0
6.3093805 27.964901 0
6.7123742 25.49448 0
6.0615993 19.165319 0
5.9185061 7.8338771 0
6.3114953 19.056309 0
6.3486366 16.769825 0
6.4723573 -13.00345 0
5.6303411 28.687838 0
6.7878599 -10.92071 0
6.2736735 -72.110077 0
6.3341527 17.94521 0
6.393302 16.682583 0
6.3465786 -6.1003089 0
6.3182402 20.70999 0
6.3613024 -19.365887 0
6.8332829 28.874111 0
6.30407 -71.953285 0
6.3295126 24.911615 0
6.3817263 -15.07142 0
6.9402065 -3.492367 0
6.3631616 -39.748543 0
6.3665795 43.165253 0
6.4438863 19.927345 0
6.4130082 -26.004169 0
6.3603959 -69.66256 0
6.5221434 -14.223 0
7.1785898 -58.600628 0
6.2797098 6.1363201 0
6.3276734 27.741268 0
6.9251876 -19.42807 0
6.3170552 -12.79665 0
6.591795 17.694777 0
6.3530302 -28.063801 0
7.0761566 -16.619682 0
6.4592953 25.735706 0
6.5925493 -68.472931 0
6.7148986 33.892677 0
6.8441305 -8.8910847 0
6.6141644 28.092903 0
6.8006124 42.34621 0
6.6589985 -15.999728 0
6.7772965 29.460356 0
6.6207428 23.567568 0
7.233603 -40.464912 0
6.9753003 -64.354988 0
7.7754931 -67.564911 0
6.8844066 -25.632601 0
6.5409565 -12.336319 0
6.5562625 -13.708781 0
7.1545992 34.81506 0
6.7733049 -23.753962 0
6.7946062 -11.134541 0
6.8984127 -53.99205 0
6.6726933 37.989414 0
6.9139619 -4.8287964 0
7.2322516 25.517635 0
6.9680495 26.502895 0
7.2858791 9.4619684 0
7.3557191 -21.432018 0
6.992979 17.025959 0
7.4360094 -10.7213 0
7.1376567 -25.54291 0
7.4044557 -41.275776 0
7.1671667 -52.58419 0
6.7774067 -4.5623393 0
7.0134501 -16.932598 0
6.8360052 -22.651865 0
6.7681184 26.43688 0
6.6998553 16.836405 0
6.67977 -4.5450501 0
6.9777269 11.882639 0
6.6525517 23.67137 0
7.157455 -67.804291 0
6.7379689 29.317007 0
6.9096336 14.02322 0
7.1007853 -27.19248 0
6.8826065 41.230755 0
9.0906649 -71.452454 0
7.3482528 -4.3961196 0
7.1045728 -6.8588047 0
7.9594483 2.9974184 0
7.5074892 -55.29319 0
7.0320611 -26.853598 0
6.7358198 -29.919001 0
6.7371922 33.960003 0
7.189466 -3.7637088 0
7.1152234 30.305397 0
7.3575673 -10.371254 0
7.0483994 -0.84846359 0
7.3047042 2.7444284 0
8.0870838 -21.393736 0
6.9346609 16.438078 0
7.3697767 -26.82597 0
7.733295 -58.60511 0
7.065289 -9.6036673 0
7.3204937 -13.717688 0
7.3828478 15.41086 0
7.2049475 -68.171486 0
7.2826858 -66.546761 0
7.2221041 20.382717 0
7.686832 -23.973164 0
7.8988199 38.453468 0
8.1768122 -72.353912 0
8.1306744 -64.560234 0
7.2506447 16.881823 0
7.224093 -37.196655 0
7.6788034 26.993317 0
6.9797587 35.460407 0
7.5872149 -46.425549 0
7.1862965 -66.943115 0
7.4755692 27.551142 0
6.9190516 -32.620663 0
7.4483533 21.474579 0
7.1543088 7.0788379 0
7.622479 -30.869314 0
7.3200479 27.393312 0
7.3915524 29.035448 0
7.5268078 5.3139777 0
7.2420015 -16.589283 0
7.009182 -48.29108 0
8.5740156 2.342391 0
6.9374757 -73.627754 0
7.0350866 -15.365807 0
7.2833743 -6.8367653 0
7.1979723 23.212574 0
7.7602072 2.6304848 0
7.4159975 -15.216571 0
7.5624518 -20.034506 0
7.7943659 -47.364357 0
7.1338954 -13.117455 0
7.0665393 -3.4264445 0
7.5768089 22.370926 0
7.09021 4.28302 0
7.3515644 -25.350464 0
7.3891511 15.728442 0
7.7137661 36.908409 0
7.5817456 -44.892567 0
7.6197743 42.079613 0
7.2836938 -12.697206 0
7.5915966 -67.623314 0
7.5633721 -5.4766364 0
7.8980818 -32.813488 0
7.237237 -68.589241 0
7.5999112 15.869094 0
8.110095 -1.5094608 0
6.9680257 21.8701 0
7.4921589 39.98032 0
7.3113017 31.153934 0
7.812655 -12.203877 0
7.756711 -44.54525 0
7.7718029 -54.151436 0
7.5728846 24.843784 0
7.3049932 -11.909772 0
7.8429265 -23.71644 0
7.4929247 34.653748 0
7.665597 18.838942 0
7.7017775 -17.085947 0
8.4995594 1.924263 0
7.6818409 41.94775 0
7.8265219 27.508238 0
7.7178588 -4.4255924 0
8.012846 -18.37282 0
7.8032799 31.983063 0
7.8866153 -70.959099 0
8.0204954 -6.4282961 0
9.3988295 -70.438843 0
8.265234 -71.143211 0
7.5270953 -64.703506 0
7.9664564 23.980145 0
8.3859081 25.51054 0
7.9555197 -25.577635 0
8.2884827 -11.892269 0
8.102582 -13.216679 0
7.9772067 -63.19466 0
8.1600266 -5.3007817 0
8.4490795 25.899628 0
8.6788521 -60.06567 0
8.2324038 28.881563 0
7.9316711 -27.098774 0
7.835804 -64.41777 0
7.8439088 -1.93028 0
8.2638693 -17.123947 0
8.1240664 23.609873 0
7.822937 36.263065 0
8.2155609 -20.987598 0
8.0825462 -25.679409 0
7.6059299 10.7329 0
8.3762693 23.611759 0
7.6143198 14.9985 0
7.9054046 -16.066511 0
7.7465644 35.65564 0
7.6684999 19.0515 0
8.038662 -17.08778 0
8.100152 -24.791885 0
7.8119521 15.813003 0
8.5658865 -71.064034 0
9.2097673 31.165852 0
7.7130499 6.5571599 0
8.0381422 -13.864574 0
8.5745087 -15.134655 0
8.0172911 -49.09724 0
8.4006348 22.207664 0
8.1018219 -27.317617 0
9.2123957 -58.592319 0
8.4172277 -27.27524 0
8.4619799 41.037258 0
7.9657102 -27.613842 0
7.8006201 -30.255899 0
7.8195143 31.364456 0
8.5695152 -20.037788 0
8.2780905 18.519863 0
8.2287226 30.017002 0
7.8354602 27.771 0
8.0019159 40.760822 0
8.3183002 -35.473248 0
8.4085217 -20.356998 0
8.1934862 31.188255 0
8.4774494 -69.660645 0
8.906662 2.7568467 0
8.8232403 -65.114708 0
8.1027136 -26.158058 0
8.142746 -48.714809 0
8.8934088 18.277666 0
8.0338745 -2.9171071 0
8.3425694 37.339951 0
8.3224249 -66.791878 0
8.121748 36.011105 0
8.5829334 -1.3035619 0
8.433157 -4.3437858 0
8.2713852 13.199778 0
8.0027599 -4.09341 0
8.2477484 17.404808 0
8.1807909 15.266068 0
9.2287569 -65.799057 0
9.0516024 26.903181 0
8.3925886 -52.969296 0
8.4614363 -1.9153123 0
8.3156662 11.124914 0
8.6597223 -41.831905 0
7.6185069 -36.964844 0
8.2775211 -32.999771 0
8.3556509 35.188805 0
8.1951571 -64.370201 0
8.3050871 9.2533627 0
8.7452354 -65.278137 0
8.5091944 -10.184714 0
8.5624352 -40.29615 0
8.7201471 -21.854811 0
8.1686592 7.3872499 0
8.6117783 -42.106052 0
7.7010088 34.287743 0
8.2537689 -11.326489 0
8.4922562 16.220291 0
8.9156637 4.4195614 0
9.0534601 20.05477 0
8.4737129 -20.576502 0
8.384491 -38.12941 0
8.2532997 -1.947 0
8.8515291 -7.212997 0
8.6756306 -2.8934114 0
8.6629019 -64.01973 0
8.721385 -11.509932 0
8.4523001 28.320049 0
9.2310934 -26.681219 0
9.1194286 -62.862614 0
8.3334503 -72.668083 0
8.7483206 -17.258177 0
8.8169641 -55.774189 0
9.0961237 -62.018024 0
8.7757111 -23.267206 0
8.9567871 15.021692 0
8.9503469 -54.064919 0
8.7824192 31.176809 0
8.3152418 40.407688 0
8.6599903 39.692608 0
7.7457829 38.76775 0
8.9969501 21.367559 0
9.6008043 -10.475278 0
8.8414068 29.034258 0
9.0118408 25.643633 0
8.4383783 36.791172 0
9.4705391 -12.90596 0
8.8884649 -45.487431 0
9.1636486 -0.64983147 0
8.9355917 19.112803 0
9.0478029 -10.126359 0
8.8330774 -44.21769 0
8.6568127 -44.73539 0
9.3559818 -24.556713 0
9.5552044 20.343756 0
8.7684641 36.642357 0
9.5252733 21.85885 0
8.6485405 35.002426 0
9.0339193 14.418458 0
8.55406 -28.5301 0
8.6687241 -2.547893 0
8.9734249 14.360504 0
9.084197 15.210067 0
8.8951387 15.396316 0
8.9291067 27.474154 0
8.6663055 32.930115 0
8.8306055 -63.530914 0
9.2229986 -19.442234 0
9.4054527 23.579929 0
9.2569103 -26.044628 0
9.0482092 -3.0164244 0
9.2343616 -23.678078 0
9.6087255 2.974304 0
9.2081137 -29.839439 0
8.4640808 -7.6888399 0
9.2861338 -0.43172777 0
8.8606787 -0.86793095 0
9.4766932 -16.812613 0
9.1482105 -20.081877 0
9.6503325 -70.543793 0
10.719324 -71.640251 0
9.1590939 -4.5148659 0
9.2569094 -49.010597 0
8.9970264 -69.007736 0
9.0863552 -66.334084 0
9.0428343 -30.4305 0
9.0688925 16.060331 0
8.8434181 28.327503 0
9.481761 -70.562683 0
9.3321857 -35.430561 0
9.9591808 3.1565046 0
9.7638187 35.846462 0
10.017004 -67.469673 0
9.7228308 28.647276 0
9.4154367 -53.973122 0
9.0933371 -49.248669 0
9.2819557 -46.729076 0
9.0695362 7.0302401 0
8.8986969 -16.394032 0
9.13276 36.739174 0
9.2443781 -27.09248 0
9.3049202 -27.423388 0
9.3532515 24.405687 0
9.167717 40.264133 0
9.255909 22.825468 0
9.8719044 -57.616928 0
9.8067379 -64.104912 0
9.3880768 -18.24258 0
8.9485397 18.4102 0
9.1312475 37.339352 0
8.9583397 14.4499 0
9.8329058 -62.688499 0
8.9678497 10.2634 0
9.6726093 -31.834721 0
9.594697 -45.404789 0
9.2195644 35.254925 0
9.4630976 36.690113 0
9.4576473 16.670523 0
9.4957733 -5.9134388 0
9.0322199 6.33113 0
9.778636 -65.430962 0
9.7010498 -58.241413 0
9.5294523 -65.122734 0
9.3436279 40.556839 0
9.80445 -0.7286877 0
9.540719 -14.495161 0
9.2024984 -2.3735526 0
9.4294653 -42.501884 0
9.5973339 -4.017746 0
9.4397974 -38.071018 0
9.452673 34.143467 0
9.5924911 18.159195 0
9.384923 -62.773888 0
10.035652 25.425833 0
9.3017683 -26.912216 0
9.358058 31.352163 0
9.6011887 3.3296614 0
9.2037401 2.6796701 0
10.005101 23.509293 0
9.7709818 29.574379 0
9.7883024 4.5285888 0
9.9125624 -53.411026 0
9.3019533 -0.90489733 0
10.355743 -68.510696 0
10.785382 -10.97814 0
9.8821697 -2.1426275 0
10.960778 -68.699402 0
10.023931 37.610184 0
9.474143 -3.6288683 0
9.5955706 30.27177 0
10.363194 -10.872578 0
10.007715 25.598095 0
9.6966848 -19.888866 0
9.2244892 -13.979887 0
9.8907299 15.950374 0
9.9387712 38.140514 0
9.864234 2.295042 0
9.8585472 -41.360474 0
10.471728 18.42676 0
10.069875 13.057807 0
10.188508 -64.023727 0
9.5663309 -14.369226 0
9.7091951 -14.332662 0
9.9966087 -26.188066 0
9.9298487 19.054085 0
9.9667997 15.079649 0
9.1382751 -68.303619 0
9.8109179 -60.549732 0
9.7563257 -31.591686 0
9.859869 33.310982 0
9.5625486 -39.452339 0
10.275042 10.821225 0
9.794467 39.235851 0
9.8913097 -27.432148 0
10.03826 -0.01223677 0
10.318004 -17.156258 0
9.9266987 39.256485 0
9.8930387 -10.201362 0
10.320561 33.147038 0
9.6107054 -16.489437 0
10.218844 -20.469959 0
9.7232122 -22.429861 0
10.369414 8.8423157 0
10.290595 -10.211007 0
9.9187117 30.277344 0
10.02841 -0.57546121 0
10.424015 -21.37225 0
10.13105 -24.123083 0
9.949893 -40.38726 0
10.128127 -68.47419 0
10.458888 -33.253651 0
10.104138 21.932648 0
9.9671125 14.118351 0
9.7959843 27.419321 0
10.420883 14.118589 0
10.213367 -27.203844 0
10.469533 -41.957726 0
9.7974539 -1.8248371 0
10.052412 32.25399 0
10.298505 -3.8558519 0
9.9472818 -6.5599098 0
10.540007 -1.4043067 0
10.443809 -19.293394 0
9.9659042 -55.825672 0
9.8528223 -50.373608 0
10.041798 30.19882 0
10.369333 -25.941067 0
10.014619 14.726202 0
10.001911 35.676163 0
10.515386 -29.875479 0
10.011608 36.341457 0
10.521038 -66.809631 0
10.843505 27.753296 0
10.237468 26.357349 0
10.021299 27.589581 0
10.663541 28.626942 0
10.77537 28.03002 0
10.878111 -21.257261 0
10.699214 -69.999794 0
10.188974 34.460159 0
10.389459 35.86031 0
10.611567 -60.770649 0
10.480806 -13.789438 0
9.9148569 -45.610569 0
9.9719601 -0.75010401 0
9.8327971 -7.1869102 0
10.391475 21.001879 0
10.094022 -45.564693 0
11.256378 -68.421555 0
10.194753 39.650608 0
10.149507 -49.231907 0
10.241776 -3.1680598 0
10.757065 -18.675596 0
10.507323 -43.680763 0
10.134583 35.162773 0
9.6944637 -24.738949 0
10.57148 -64.275032 0
10.845078 -12.334651 0
10.0805 17.7757 0
10.0931 -0.186318 0
11.872133 -65.763336 0
10.887124 -11.782811 0
10.210922 -14.22442 0
10.637285 -39.196262 0
10.1607 9.7627602 0
10.1647 13.9079 0
10.583368 -28.100079 0
10.1852 5.9973602 0
10.960611 -57.606533 0
11.052404 -70.899841 0
11.698037 23.547192 0
10.384778 -27.544331 0
10.567298 -42.447384 0
10.583207 33.084763 0
10.783322 -63.758457 0
10.683093 -64.810501 0
10.564941 -13.940238 0
11.150161 -27.285208 0
10.727149 31.391499 0
10.3008 2.5206101 0
10.367043 -16.424961 0
10.895521 -65.696663 0
10.774899 -29.977295 0
10.491055 -49.205227 0
10.469228 -51.725796 0
10.810901 0.0052946401 0
10.538737 -6.9772868 0
10.396167 3.5768795 0
10.760729 -14.524549 0
10.632191 39.130547 0
10.717368 -65.09024 0
11.245833 27.990717 0
10.418527 -47.680817 0
10.794639 -9.5730486 0
10.722817 3.615541 0
10.841928 -3.9322162 0
10.529636 -45.228268 0
10.685677 -6.2503448 0
10.51304 -14.297492 0
10.78996 17.503195 0
10.817888 -24.522602 0
11.47741 -66.346649 0
11.14951 34.997684 0
11.017497 -68.311607 0
11.595671 -11.340849 0
11.11827 26.899736 0
11.022025 21.406992 0
10.83207 -16.478907 0
11.070073 -6.3278728 0
10.589894 -55.230587 0
10.524736 -45.388489 0
10.623658 -1.9298632 0
11.798308 -69.384125 0
11.115226 15.078389 0
11.004616 16.827406 0
11.033512 7.3314919 0
11.172297 -62.3092 0
10.732832 -41.043278 0
10.597149 -1.6436563 0
10.847746 -54.25774 0
10.665696 -43.680447 0
11.019254 0.31952602 0
10.756328 15.503001 0
11.988908 -18.761644 0
10.963546 15.647473 0
10.645492 -38.357567 0
10.915623 27.615911 0
10.782374 38.599129 0
10.597875 2.9762695 0
11.432707 -34.456203 0
10.914737 32.18795 0
10.926385 -7.0949082 0
11.394804 -27.110729 0
11.313565 5.2803807 0
10.706854 -23.305117 0
10.780746 -45.507298 0
11.18388 2.2864273 0
10.912452 -12.970989 0
11.117723 4.2403135 0
10.792412 2.659986 0
11.182876 -10.047481 0
9.8867731 2.2181289 0
11.13057 22.636082 0
10.900984 -51.495377 0
11.313185 -26.40996 0
11.118182 -33.405426 0
10.8023 -0.48622301 0
10.821761 -45.538673 0
10.985553 -19.393339 0
11.047838 -20.750368 0
10.82926 24.769602 0
11.031228 35.012482 0
11.302423 -26.292107 0
11.346203 -5.9718013 0
11.176991 14.590446 0
10.995885 -52.414646 0
12.913809 -65.575935 0
11.832439 33.382034 0
11.193627 14.495263 0
11.192119 -2.8638339 0
11.044275 -42.572319 0
11.017126 -42.753651 0
10.9247 -0.021121999 0
11.214981 -57.81221 0
11.215289 29.057096 0
11.416418 28.655993 0
11.31496 13.329094 0
11.508698 37.649197 0
11.396952 28.787401 0
11.425033 -6.444191 0
12.363155 24.494223 0
11.121139 -41.382771 0
11.335745 17.388132 0
11.296597 -41.376957 0
11.002752 -16.167349 0
11.350939 -56.15102 0
12.0288 32.233315 0
11.940044 -20.638002 0
11.200622 38.614471 0
11.181281 -54.289928 0
11.259382 -13.620167 0
11.249225 -55.6688 0
11.188128 -39.505337 0
11.689259 -19.715837 0
11.513009 11.273402 0
11.0957 -1.28071 0
12.226635 -5.0955267 0
12.339236 -20.987226 0
11.392054 22.585478 0
11.760345 -0.3711738 0
11.329195 -65.433586 0
11.873751 -60.60854 0
11.462653 33.513363 0
11.217244 37.404102 0
11.477758 -21.2258 0
11.638237 -65.747322 0
11.286914 -55.348389 0
11.643987 -14.800976 0
11.152369 31.653065 0
11.938137 -9.3198948 0
11.165342 7.0995517 0
11.772665 -22.435801 0
11.609451 -17.766687 0
11.570222 21.624084 0
11.471341 -32.192947 0
11.506834 20.776176 0
11.675508 -7.9697657 0
11.917715 -35.710857 0
11.203235 3.2980874 0
11.352955 19.124285 0
11.501131 -38.209267 0
11.68858 9.3196974 0
11.657732 30.879898 0
11.283709 -3.569591 0
11.52912 -65.520607 0
11.515969 23.515966 0
11.447139 -65.251717 0
11.109808 25.852005 0
11.826588 18.184877 0
11.783342 14.922638 0
11.2889 13.7676 0
11.3019 2.3615601 0
11.712234 -1.3903927 0
11.143938 -3.865561 0
11.300882 2.9383035 0
11.594978 -33.920952 0
11.265659 -23.828503 0
11.368862 -12.234595 0
11.66029 -25.59218 0
11.596269 -5.2145181 0
11.804012 15.531711 0
11.931201 16.933962 0
11.609097 -66.907066 0
11.384317 -2.3136852 0
11.676294 -60.441544 0
11.718895 3.1346207 0
11.828996 -25.595261 0
12.100864 16.965765 0
11.761304 -65.134712 0
12.094531 14.639469 0
11.829601 -12.725288 0
11.745502 5.4524231 0
12.646069 18.93158 0
12.012496 15.801181 0
11.879837 -4.7455244 0
11.747936 28.599665 0
11.695545 19.504522 0
11.564721 -2.9103847 0
11.805086 14.283408 0
11.665873 -13.681916 0
11.744411 -7.5961604 0
11.912967 31.125261 0
12.592813 26.645773 0
12.239509 -29.391165 0
11.598617 -0.7369287 0
12.397635 -65.382736 0
12.046157 14.824333 0
12.163955 34.725174 0
11.574053 -23.047464 0
11.855134 -28.238241 0
12.26586 -11.384708 0
12.116755 35.369823 0
12.508489 0.33526731 0
11.820457 -62.492603 0
12.314145 27.337452 0
12.021411 -11.949465 0
11.855537 37.285885 0
12.107594 -59.160282 0
12.309972 -36.67931 0
12.002387 -14.4508 0
12.170985 -15.717103 0
11.922055 -14.757533 0
11.82356 -64.661629 0
11.986465 -14.04857 0
12.111298 26.781265 0
11.896033 -16.602509 0
11.880028 -26.238483 0
12.174421 3.5042961 0
12.274198 -71.475075 0
11.62965 26.140797 0
12.108284 -59.127892 0
12.402596 25.841558 0
12.068331 29.541218 0
11.7784 -0.20756599 0
12.215909 -7.0937037 0
12.100513 23.281923 0
11.993349 -7.3371463 0
12.009463 -64.014725 0
12.556618 -37.818512 0
12.511231 -59.651974 0
12.005612 -25.914604 0
12.017163 3.2342968 0
12.253999 -12.837745 0
11.8697 -1.3422 0
12.027699 3.2207532 0
11.914488 -6.8748884 0
11.774931 -63.760197 0
11.988123 -9.829072 0
12.094234 37.285225 0
12.346602 -38.332008 0
12.387862 27.723034 0
12.275116 36.217175 0
12.400081 -61.448841 0
12.091311 24.579256 0
12.151478 30.875494 0
12.017705 30.208961 0
12.063684 -62.620155 0
12.318398 21.36385 0
12.692538 32.010712 0
12.356736 -33.140842 0
12.271523 -37.203911 0
12.0395 4.3757401 0
12.259932 -3.1277683 0
13.017808 22.657537 0
12.11948 -4.0614376 0
12.088247 30.037748 0
12.588966 -7.6189661 0
12.553738 -65.426056 0
12.168579 25.213358 0
12.086497 6.9387622 0
12.529002 -32.129524 0
12.247208 -64.323303 0
12.367188 -23.745905 0
12.478959 -26.190691 0
12.484867 -15.188012 0
12.704117 5.858912 0
12.583932 -25.484211 0
12.121803 -19.971533 0
12.84318 3.35953 0
12.502372 11.848788 0
12.169813 31.89348 0
12.743509 21.241791 0
12.486979 8.2724695 0
12.952981 25.547476 0
12.480942 -60.877064 0
12.665546 5.0717568 0
12.989675 -19.211672 0
13.04848 -23.316107 0
12.787085 -30.928158 0
12.49318 -64.830132 0
12.881439 -9.1994162 0
12.290601 -1.9684831 0
12.373442 26.804661 0
12.26553 1.0829048 0
12.947368 16.045237 0
12.556771 -18.589941 0
12.599888 -17.586325 0
12.654544 -12.578032 0
12.68735 32.412819 0
12.691285 -24.755365 0
13.207909 17.099146 0
12.793534 -37.202332 0
12.61905 28.565439 0
12.587074 27.273502 0
12.425903 25.314108 0
12.497808 -6.4497638 0
12.414836 6.3941355 0
12.642861 11.05273 0
12.389279 -63.004318 0
12.386406 17.7369 0
12.826756 -33.634811 0
12.510815 3.5181463 0
12.881363 -63.257587 0
12.621206 -20.020212 0
12.186265 -10.374893 0
12.706879 -34.343124 0
12.974047 8.754529 0
12.465302 -6.6165366 0
13.134336 -70.376343 0
12.882745 -19.965265 0
12.916729 15.711943 0
12.571339 -14.11321 0
13.379591 -7.9827075 0
12.571617 -60.80051 0
13.188774 15.054479 0
12.94355 17.769253 0
13.114749 -67.188354 0
12.688449 -8.641345 0
12.4558 -3.27108 0
12.813666 26.08626 0
12.703108 35.986298 0
13.190149 6.6777139 0
12.4986 -1.06856 0
12.682234 -62.360981 0
12.698121 -17.308928 0
12.678716 -11.467965 0
12.725054 16.596304 0
12.5532 -2.8549099 0
12.925147 -5.7460694 0
13.207069 15.200773 0
12.573 -0.72020501 0
12.594206 -4.7871623 0
12.5892 -1.19214 0
12.883595 -10.85995 0
12.720776 -63.839142 0
13.61703 -70.429703 0
12.93334 25.666941 0
13.129621 -24.961065 0
12.767509 4.3217673 0
12.709868 -8.9886847 0
12.678907 -25.749485 0
13.1301 25.167208 0
12.971956 21.367294 0
12.964515 5.5281124 0
12.6867 -8.9678802 0
13.625591 27.809092 0
13.204654 28.977921 0
12.76572 -4.1831579 0
13.39829 -31.583874 0
13.328896 -2.914582 0
12.699405 -14.689467 0
13.338899 22.234194 0
13.050101 8.7948761 0
13.310048 -4.561573 0
12.853511 24.834085 0
12.949335 -9.3083239 0
12.912427 35.66415 0
12.902828 13.048352 0
13.064764 -25.606844 0
13.048635 -12.722092 0
12.986009 -15.903803 0
13.527392 23.427801 0
13.13188 -20.892954 0
13.292466 -66.168968 0
12.831087 6.8075762 0
12.904391 -11.95116 0
13.145033 -9.9959059 0
13.232158 24.859776 0
13.351216 -22.793264 0
13.106764 -34.88892 0
13.173191 16.926714 0
13.038328 -5.9791775 0
13.016029 -62.99081 0
13.682311 23.285944 0
13.039048 -14.751096 0
13.350184 24.431372 0
13.131025 -18.076042 0
13.459982 -14.117446 0
13.114824 -22.708326 0
13.043863 7.1912704 0
13.099223 4.6909451 0
13.286876 -33.411396 0
13.186025 -9.1929808 0
13.448506 19.375622 0
13.166992 4.7030845 0
13.088619 -12.456018 0
13.29579 19.5207 0
13.0214 -2.6666801 0
13.038688 -13.808837 0
13.202035 5.1862926 0
13.370852 -19.16404 0
13.378509 18.186413 0
13.565515 -64.605408 0
13.586617 33.61697 0
13.379841 25.019337 0
13.148544 -15.550413 0
13.145158 -24.551491 0
13.179792 -1.9752693 0
13.404992 -20.365631 0
13.873618 -68.346436 0
12.987741 -25.395849 0
13.76168 22.339634 0
13.1364 -2.5496199 0
13.667484 32.719715 0
13.149737 -25.371437 0
13.371366 -65.241669 0
13.353949 -18.174345 0
13.1761 -4.3789001 0
13.1767 -1.4744101 0
13.306758 -4.4957929 0
13.239779 -13.450311 0
13.43222 -10.498676 0
13.383326 10.134983 0
13.342702 9.0251799 0
13.301238 -11.787832 0
13.678621 -10.312277 0
13.415018 -7.4965401 0
13.422404 -2.2788436 0
13.629856 -29.312521 0
13.452682 -6.7176752 0
13.453259 -8.803546 0
13.368663 -10.478005 0
13.320199 9.0367098 0
13.349712 -8.2609377 0
13.454345 32.718395 0
13.771954 -9.6860437 0
13.486737 12.463211 0
13.83759 8.0764618 0
13.959678 -1.7199097 0
13.675413 -23.682035 0
13.470612 2.9250579 0
13.822234 -24.630426 0
13.684934 6.4579487 0
13.772839 -31.267241 0
13.565119 16.23012 0
13.596612 9.6905708 0
13.769581 20.636309 0
13.515845 -17.538734 0
13.539547 34.058781 0
13.669173 -6.0665674 0
13.630727 -10.190034 0
13.777203 23.493221 0
13.414304 -66.940331 0
13.640727 30.822351 0
13.69913 16.140472 0
14.033161 12.093078 0
13.639942 -32.405663 0
13.582626 -23.927259 0
13.687316 -26.648031 0
13.573951 -3.5997257 0
13.649113 -66.495575 0
13.783698 -7.1342258 0
13.858472 -29.261084 0
13.888286 8.0290737 0
13.844034 10.676538 0
13.738592 -11.22053 0
14.053234 32.65799 0
14.215455 18.840496 0
13.797488 -1.2021068 0
13.741158 -2.7613583 0
13.740187 12.16663 0
13.924654 15.134541 0
13.784937 -66.071899 0
13.765113 23.15612 0
13.70089 -7.6650052 0
13.67022 8.8807678 0
13.928513 23.052639 0
14.007955 -12.939566 0
13.670936 -11.987311 0
14.103024 21.834206 0
14.183515 14.331475 0
14.123937 16.379107 0
13.716376 16.855125 0
13.777523 -22.321819 0
13.921718 3.5676515 0
14.226763 -21.451777 0
14.046859 -5.5410943 0
14.511804 16.961002 0
14.427673 19.504143 0
13.941054 -69.65976 0
14.034082 -5.0441728 0
14.044969 -67.861755 0
13.906222 -6.2862368 0
14.047174 -5.9234838 0
13.997488 8.3203201 0
13.706002 -66.636185 0
13.953314 9.8834076 0
14.026205 -16.855455 0
14.022002 -13.953579 0
14.063778 -24.655819 0
13.981654 12.955104 0
13.961968 13.97243 0
14.486823 20.427277 0
14.497252 -29.302183 0
14.262619 22.39661 0
14.044185 -12.914768 0
14.343286 -6.4611769 0
14.116474 -8.1391363 0
14.187884 -4.8956633 0
14.114405 17.962595 0
14.283434 14.706707 0
14.166185 15.564394 0
14.170238 -20.577538 0
14.281741 -9.7818079 0
14.164747 -13.064124 0
14.234054 4.726697 0
14.25058 -1.1773182 0
14.376425 31.429594 0
14.204196 -11.511006 0
14.218252 6.088665 0
14.193825 7.5126743 0
14.153637 -13.933187 0
14.431103 28.725313 0
14.95555 25.382185 0
14.570953 -24.38166 0
14.335402 -19.045504 0
14.447027 -8.2361488 0
14.42846 -15.218502 0
14.578491 -1.075384 0
14.536723 19.028097 0
14.980661 -27.164886 0
14.778635 19.596189 0
14.698376 -13.340645 0
14.608959 -4.5066853 0
14.300949 10.764855 0
14.366082 -22.639385 0
14.294786 -22.242008 0
14.393182 10.243226 0
14.520127 -15.362458 0
14.571169 12.000214 0
14.390017 -17.46575 0
14.601149 -10.786139 0
14.727926 -0.87060583 0
14.532519 9.2629566 0
14.7037 -27.85574 0
14.690138 17.259815 0
14.844966 -26.628954 0
14.52599 19.98527 0
14.385362 -5.8741984 0
14.602349 -10.272572 0
14.483132 25.082535 0
14.593088 -6.3203154 0
14.439952 16.748198 0
14.195827 17.720848 0
14.343328 -17.492691 0
14.676798 28.051014 0
14.633206 -13.097158 0
14.521835 9.1936865 0
14.765817 -13.355337 0
15.059834 -25.987213 0
14.953391 -13.847286 0
14.813432 9.9517756 0
14.59612 -2.445276 0
14.793346 -11.850819 0
14.699821 -8.3834362 0
14.872768 22.509985 0
14.946969 -3.8716321 0
14.82443 28.709723 0
14.664988 -18.26049 0
14.847321 17.896852 0
14.797705 -11.468864 0
14.734406 -5.3215327 0
14.838198 12.43113 0
15.111432 28.407499 0
15.195987 14.166186 0
14.998512 -11.310328 0
14.959681 -12.101265 0
14.928891 -19.842539 0
14.841076 -17.335396 0
14.91616 -22.395142 0
14.975718 -8.1431437 0
14.990883 -16.491358 0
15.179522 -24.480637 0
14.958978 -5.5577464 0
15.037477 24.161198 0
15.010451 12.008804 0
15.272742 25.604177 0
15.177576 12.314202 0
15.380115 15.774149 0
15.327232 18.212715 0
15.392699 23.031862 0
15.080857 -8.9752254 0
15.400219 20.769489 0
15.232504 -22.257046 0
15.436394 20.67868 0
15.196952 -21.458061 0
15.495871 24.819613 0
15.467923 26.395065 0
15.464468 26.340878 0
15.494343 13.797855 0
15.521642 14.412097 0
15.800046 16.791079 0
15.729292 18.878708 0
15.752468 24.135071 0
15.876932 19.33288 0
15.803712 22.062157 0
15.747754 22.551537 0
15.789463 16.606567 0
15.906736 20.561464 0
