# .PCD v0.7 - Point Cloud Data file format
VERSION 0.7
FIELDS x y z
SIZE 4 4 4
TYPE F F F
COUNT 1 1 1
WIDTH 332
HEIGHT 1
VIEWPOINT 0 0 0 1 0 0 0
POINTS 332
DATA ascii
-10 0 0
-10.015625 0 0.042999268
-10.015625 0 0.10300064
-10.046875 0 0.15100098
-10.0625 0 0.20299911
-10.015625 0 0.012001038
-10.046875 0 0.076000214
-10.046875 0.03125 0.12200165
-10.0625 0.03125 0.16699982
-10.078125 0.03125 0.2140007
-10.109375 0.03125 0.26399994
-10.0625 0.0625 0.14900208
-10.09375 0.0625 0.19599915
-10.109375 0.03125 0.22800064
-10.140625 0.03125 0.26700211
-10.140625 0.0625 0.25
-10.171875 0.0625 0.28300095
-10.1875 0.0625 0.32799911
-10.15625 0.09375 0.27700043
-10.1875 0.09375 0.29400253
-10.21875 0.09375 0.32900238
-10.21875 0.09375 0.30500031
-10.25 0.09375 0.33800125
-10.25 0.125 0.31900024
-10.265625 0.09375 0.34600067
-10.265625 0.125 0.32500076
-10.3125 0.125 0.34400177
-10.3125 0.15625 0.32699966
-10.328125 0.125 0.35200119
-10.328125 0.15625 0.33300018
-10.359375 0.15625 0.35499954
-10.359375 0.1875 0.34000015
-10.40625 0.15625 0.35900116
-10.40625 0.1875 0.33800125
-10.421875 0.1875 0.36500168
-10.421875 0.21875 0.34899902
-10.46875 0.1875 0.36400223
-10.46875 0.21875 0.34000015
-10.484375 0.21875 0.3710022
-10.484375 0.21875 0.34899902
-10.5 0.21875 0.38100052
-10.578125 0.1875 0.37400055
-10.59375 0.1875 0.41600037
-10.5 0.25 0.35400009
-10.578125 0.1875 0.32200241
-10.609375 0.1875 0.35000229
-10.609375 0.1875 0.41600037
-10.5 0.25 0.32400131
-10.5625 0.21875 0.32300186
-10.609375 0.21875 0.32400131
-10.640625 0.1875 0.34400177
-10.65625 0.21875 0.40500259
-10.5625 0.25 0.31800079
-10.59375 0.25 0.31299973
-10.640625 0.21875 0.31800079
-10.671875 0.15625 0.33100128
-10.6875 0.1875 0.39900208
-10.546875 0.3125 0.31600189
-10.578125 0.28125 0.32099915
-10.640625 0.25 0.31100082
-10.671875 0.1875 0.30800247
-10.703125 0.1875 0.32200241
-10.703125 0.1875 0.38399887
-10.5625 0.3125 0.32099915
-10.609375 0.28125 0.31500244
-10.65625 0.28125 0.31900024
-10.6875 0.21875 0.31299973
-10.75 0.1875 0.31000137
-10.765625 0.1875 0.36700058
-10.546875 0.34375 0.33000183
-10.59375 0.3125 0.31999969
-10.640625 0.28125 0.31800079
-10.6875 0.25 0.30500031
-10.734375 0.21875 0.31000137
-10.765625 0.1875 0.31399918
-10.78125 0.21875 0.36299896
-10.578125 0.375 0.32699966
-10.609375 0.3125 0.31800079
-10.671875 0.28125 0.31200027
-10.734375 0.25 0.30599976
-10.765625 0.21875 0.30800247
-10.8125 0.21875 0.31100082
-10.828125 0.21875 0.35800171
-10.59375 0.34375 0.32400131
-10.65625 0.3125 0.32200241
-10.71875 0.28125 0.31000137
-10.75 0.28125 0.31000137
-10.78125 0.25 0.31600189
-10.828125 0.21875 0.31200027
-10.84375 0.21875 0.35000229
-10.578125 0.40625 0.33300018
-10.640625 0.34375 0.31800079
-10.6875 0.34375 0.32200241
-10.734375 0.28125 0.3030014
-10.765625 0.28125 0.31299973
-10.8125 0.25 0.33100128
-10.84375 0.21875 0.31900024
-10.875 0.21875 0.34799957
-10.625 0.40625 0.31999969
-10.671875 0.34375 0.31299973
-10.71875 0.34375 0.31100082
-10.75 0.3125 0.31299973
-10.8125 0.28125 0.30599976
-10.84375 0.28125 0.31900024
-10.875 0.25 0.31500244
-10.921875 0.25 0.34300232
-10.65625 0.40625 0.31700134
-10.71875 0.375 0.31100082
-10.75 0.34375 0.31500244
-10.78125 0.3125 0.31500244
-10.78125 0.34375 0.3769989
-10.84375 0.3125 0.35499954
-10.921875 0.25 0.31299973
-10.9375 0.25 0.35300064
-10.6875 0.40625 0.31000137
-10.734375 0.375 0.31299973
-10.765625 0.375 0.32900238
-10.8125 0.34375 0.34000015
-10.78125 0.375 0.44800186
-10.859375 0.34375 0.4109993
-10.9375 0.25 0.30800247
-10.953125 0.25 0.34600067
-10.671875 0.4375 0.32099915
-10.71875 0.40625 0.31500244
-10.75 0.40625 0.3370018
-10.8125 0.34375 0.2859993
-10.859375 0.3125 0.25400162
-10.859375 0.34375 0.37900162
-10.890625 0.375 0.43500137
-10.953125 0.28125 0.3030014
-10.984375 0.28125 0.35200119
-10.703125 0.46875 0.32099915
-10.734375 0.4375 0.34600067
-10.828125 0.375 0.23300171
-10.859375 0.34375 0.2460022
-10.859375 0.375 0.33200073
-10.890625 0.375 0.40399933
-10.90625 0.375 0.44100189
-11 0.28125 0.31000137
-11.015625 0.28125 0.35800171
-10.734375 0.46875 0.29999924
-10.796875 0.40625 0.28100204
-10.84375 0.375 0.25099945
-10.828125 0.4375 0.39200211
-10.890625 0.40625 0.35599899
-10.890625 0.40625 0.44400024
-10.9375 0.375 0.39699936
-11.015625 0.3125 0.30800247
-11.015625 0.3125 0.38299942
-10.75 0.46875 0.31900024
-10.828125 0.40625 0.25
-10.84375 0.4375 0.31500244
-10.84375 0.46875 0.41699982
-10.890625 0.4375 0.40299988
-10.921875 0.4375 0.44000244
-10.984375 0.375 0.36999893
-11.046875 0.3125 0.31999969
-11.046875 0.3125 0.38600159
-10.796875 0.5 0.30900192
-10.828125 0.46875 0.34799957
-10.84375 0.46875 0.36700058
-10.859375 0.46875 0.41799927
-10.953125 0.375 0.28700256
-10.96875 0.40625 0.3769989
-11.03125 0.34375 0.30900192
-11.078125 0.3125 0.31200027
-11.078125 0.34375 0.40100098
-10.8125 0.5 0.32400131
-10.84375 0.5 0.36100006
-10.875 0.5 0.38199997
-10.90625 0.46875 0.41699982
-10.96875 0.40625 0.32799911
-11.015625 0.40625 0.34000015
-11.0625 0.375 0.3370018
-11.09375 0.34375 0.31399918
-10.84375 0.53125 0.33100128
-10.875 0.5 0.36199951
-10.9375 0.4375 0.28000259
-10.9375 0.46875 0.37400055
-11.015625 0.40625 0.30900192
-11.03125 0.40625 0.34199905
-11.078125 0.375 0.3390007
-11.109375 0.34375 0.32300186
-10.875 0.53125 0.3370018
-10.890625 0.53125 0.36700058
-10.921875 0.5 0.38999939
-11 0.46875 0.32600021
-11 0.46875 0.39500046
-11.078125 0.40625 0.32099915
-11.109375 0.375 0.31399918
-10.890625 0.53125 0.32699966
-10.96875 0.5 0.28499985
-10.96875 0.5 0.35499954
-11 0.5 0.37200165
-11.0625 0.4375 0.33200073
-11.09375 0.40625 0.30900192
-10.9375 0.53125 0.30800247
-10.96875 0.53125 0.34799957
-11 0.5 0.31900024
-11.03125 0.5 0.3370018
-11.078125 0.4375 0.31700134
-10.96875 0.5625 0.32500076
-10.984375 0.53125 0.33600235
-11.015625 0.53125 0.33499908
-11.078125 0.5 0.32799911
-10.984375 0.5625 0.34000015
-11.015625 0.5625 0.3409996
-11.0625 0.53125 0.32699966
-11 0.59375 0.33100128
-11.046875 0.5625 0.34199905
-11.171875 0.3125 0.35499954
-11.046875 0.25 0.33200073
-11.171875 0.34375 0.3409996
-11.109375 0.28125 0.40100098
-10.96875 0.21875 0.34500122
-11.15625 0.34375 0.33600235
-11.15625 0.34375 0.37900162
-11.125 0.3125 0.42900085
-11.15625 0.375 0.36800003
-11.15625 0.34375 0.41600037
-10.859375 0.15625 0.35800171
-11.015625 0.28125 0.35700226
-11.15625 0.375 0.36000061
-11.125 0.375 0.4070015
-10.875 0.21875 0.3390007
-11.125 0.34375 0.45100021
-10.90625 0.21875 0.3769989
-11.125 0.40625 0.34799957
-10.875 0.25 0.28000259
-11.109375 0.375 0.39599991
-10.875 0.21875 0.32500076
-11.125 0.375 0.43600082
-10.859375 0.21875 0.36999893
-10.9375 0.25 0.39099884
-11.15625 0.40625 0.36999893
-10.84375 0.21875 0.31399918
-11.109375 0.375 0.42300034
-10.84375 0.21875 0.35800171
-10.875 0.21875 0.39099884
-11.125 0.4375 0.35499954
-10.875 0.28125 0.28800201
-11.125 0.40625 0.40299988
-10.84375 0.21875 0.3409996
-11.109375 0.375 0.44800186
-10.90625 0.25 0.37200165
-11.125 0.4375 0.34199905
-10.90625 0.3125 0.26599884
-11.109375 0.40625 0.38800049
-10.859375 0.25 0.31999969
-11.109375 0.40625 0.43300247
-10.859375 0.25 0.35900116
-10.921875 0.28125 0.38600159
-11.125 0.4375 0.36800003
-10.859375 0.28125 0.30200195
-11.125 0.40625 0.4109993
-10.84375 0.25 0.34799957
-11.09375 0.375 0.46699905
-10.875 0.25 0.38199997
-11.125 0.4375 0.35300064
-10.84375 0.28125 0.29100037
-11.109375 0.40625 0.39900208
-10.84375 0.25 0.33300018
-11.109375 0.40625 0.44700241
-10.859375 0.25 0.3730011
-11.109375 0.4375 0.34300232
-10.84375 0.28125 0.27400208
-11.109375 0.40625 0.38899994
-10.84375 0.25 0.32099915
-11.109375 0.40625 0.43199921
-10.859375 0.28125 0.35900116
-11.078125 0.40625 0.34199905
-11.125 0.4375 0.3710022
-10.84375 0.28125 0.30900192
-11.109375 0.40625 0.42399979
-10.84375 0.25 0.35400009
-10.9375 0.3125 0.3710022
-11.125 0.4375 0.36000061
-10.828125 0.25 0.3030014
-11.109375 0.40625 0.41200256
-10.84375 0.25 0.34400177
-11.09375 0.375 0.46300125
-10.875 0.28125 0.37800217
-11.125 0.4375 0.35000229
-10.859375 0.28125 0.28000259
-11.109375 0.40625 0.39799881
-10.828125 0.25 0.33200073
-11.109375 0.40625 0.44700241
-10.859375 0.28125 0.36899948
-11.109375 0.4375 0.34600067
-11.109375 0.40625 0.38800049
-10.84375 0.28125 0.31800079
-11.109375 0.40625 0.43600082
-10.859375 0.28125 0.35700226
-10.921875 0.28125 0.38899994
-11.125 0.4375 0.37200165
-10.84375 0.25 0.30599976
-11.109375 0.40625 0.42399979
-10.84375 0.25 0.35000229
-10.90625 0.25 0.38500214
-11.125 0.40625 0.36500168
-10.828125 0.25 0.3030014
-11.125 0.40625 0.41400146
-10.84375 0.25 0.3409996
-10.859375 0.25 0.38500214
-11.15625 0.40625 0.35200119
-11.125 0.375 0.40200043
-10.84375 0.21875 0.33399963
-11.125 0.375 0.45199966
-10.875 0.25 0.36899948
-11.15625 0.40625 0.3409996
-10.84375 0.25 0.27600098
-11.125 0.375 0.39300156
-10.84375 0.21875 0.31999969
-11.125 0.34375 0.44100189
-10.875 0.21875 0.36199951
-11.125 0.375 0.3390007
-11.125 0.375 0.38399887
-10.828125 0.21875 0.31900024
-11.125 0.34375 0.43799973
-10.859375 0.1875 0.36299896
-11.15625 0.375 0.37900162
-10.859375 0.21875 0.30200195
-11.125 0.3125 0.43300247
-10.84375 0.1875 0.35700226
-11.078125 0.3125 0.34199905
-11.171875 0.375 0.36700058
-11.125 0.3125 0.42499924
-11.171875 0.34375 0.36199951
-10.90625 0.1875 0.33100128
-11.171875 0.3125 0.35700226
-11.046875 0.25 0.33399963
-11.171875 0.3125 0.35000229
